<?xml version="1.0" encoding="UTF-8" standalone="no"?>
<!-- Created with Inkscape (http://www.inkscape.org/) -->

<svg
   width="236.10411mm"
   height="95.625137mm"
   viewBox="0 0 236.10411 95.625137"
   version="1.1"
   id="svg5"
   sodipodi:docname="paradise.svg"
   inkscape:version="1.2 (1:1.2.1+202207142221+cd75a1ee6d)"
   xmlns:inkscape="http://www.inkscape.org/namespaces/inkscape"
   xmlns:sodipodi="http://sodipodi.sourceforge.net/DTD/sodipodi-0.dtd"
   xmlns="http://www.w3.org/2000/svg"
   xmlns:svg="http://www.w3.org/2000/svg">
  <sodipodi:namedview
     id="namedview7"
     pagecolor="#ffffff"
     bordercolor="#666666"
     borderopacity="1.0"
     inkscape:pageshadow="2"
     inkscape:pageopacity="0.0"
     inkscape:pagecheckerboard="0"
     inkscape:document-units="mm"
     showgrid="false"
     inkscape:zoom="0.42582772"
     inkscape:cx="486.11208"
     inkscape:cy="374.56462"
     inkscape:window-width="1366"
     inkscape:window-height="704"
     inkscape:window-x="0"
     inkscape:window-y="0"
     inkscape:window-maximized="1"
     inkscape:current-layer="layer1"
     inkscape:showpageshadow="2"
     inkscape:deskcolor="#d1d1d1" />
  <defs
     id="defs2">
    <filter
       style="color-interpolation-filters:sRGB"
       inkscape:label="Drop Shadow"
       id="filter14058"
       x="-0.018327681"
       y="-0.071166046"
       width="1.0595649"
       height="1.1423321">
      <feFlood
         flood-opacity="0.498039"
         flood-color="rgb(0,0,0)"
         result="flood"
         id="feFlood14048" />
      <feComposite
         in="flood"
         in2="SourceGraphic"
         operator="in"
         result="composite1"
         id="feComposite14050" />
      <feGaussianBlur
         in="composite1"
         stdDeviation="0.6"
         result="blur"
         id="feGaussianBlur14052" />
      <feOffset
         dx="1.8"
         dy="0"
         result="offset"
         id="feOffset14054" />
      <feComposite
         in="SourceGraphic"
         in2="offset"
         operator="over"
         result="composite2"
         id="feComposite14056" />
    </filter>
    <filter
       style="color-interpolation-filters:sRGB"
       inkscape:label="Drop Shadow"
       id="filter16268"
       x="-0.036444034"
       y="-0.082140498"
       width="1.0728782"
       height="1.164281">
      <feFlood
         flood-opacity="0.498039"
         flood-color="rgb(0,0,0)"
         result="flood"
         id="feFlood16258" />
      <feComposite
         in="flood"
         in2="SourceGraphic"
         operator="in"
         result="composite1"
         id="feComposite16260" />
      <feGaussianBlur
         in="composite1"
         stdDeviation="1.1"
         result="blur"
         id="feGaussianBlur16262" />
      <feOffset
         dx="2"
         dy="0"
         result="offset"
         id="feOffset16264" />
      <feComposite
         in="SourceGraphic"
         in2="offset"
         operator="over"
         result="fbSourceGraphic"
         id="feComposite16266" />
      <feColorMatrix
         result="fbSourceGraphicAlpha"
         in="fbSourceGraphic"
         values="0 0 0 -1 0 0 0 0 -1 0 0 0 0 -1 0 0 0 0 1 0"
         id="feColorMatrix21175" />
      <feFlood
         id="feFlood21177"
         flood-opacity="0.498039"
         flood-color="rgb(0,0,0)"
         result="flood"
         in="fbSourceGraphic" />
      <feComposite
         in2="fbSourceGraphic"
         id="feComposite21179"
         in="flood"
         operator="in"
         result="composite1" />
      <feGaussianBlur
         id="feGaussianBlur21181"
         in="composite1"
         stdDeviation="1.2"
         result="blur" />
      <feOffset
         id="feOffset21183"
         dx="-2"
         dy="0"
         result="offset" />
      <feComposite
         in2="offset"
         id="feComposite21185"
         in="fbSourceGraphic"
         operator="over"
         result="composite2" />
    </filter>
  </defs>
  <g
     inkscape:label="Camada 1"
     inkscape:groupmode="layer"
     id="layer1"
     transform="translate(-29.447938,-55.747438)">
    <rect
       style="display:none;fill:#a7f3d0;fill-opacity:1;stroke:none;stroke-width:1;stroke-linejoin:round;stroke-miterlimit:4;stroke-dasharray:none;stroke-opacity:1"
       id="rect20472"
       width="297.62134"
       height="209.3912"
       x="-0.6213389"
       y="0.6213389" />
    <g
       id="g659">
      <path
         id="text1485"
         style="font-size:74.4804px;line-height:1.25;font-family:'Mea Culpa';-inkscape-font-specification:'Mea Culpa';fill:#eab308;fill-opacity:1;stroke:#eab308;stroke-width:1;stroke-miterlimit:4;stroke-dasharray:none;stroke-opacity:1;filter:url(#filter16268)"
         sodipodi:type="inkscape:offset"
         inkscape:radius="0"
         inkscape:original="M 115.9707 61.767578 C 114.67971 61.767578 113.33952 62.066266 111.94922 62.662109 C 110.60857 63.257953 109.29099 64.05185 108 65.044922 C 102.19053 63.356699 95.860009 62.511719 89.007812 62.511719 C 84.191413 62.511719 79.325863 62.959751 74.410156 63.853516 C 69.49445 64.697627 64.827374 65.988686 60.408203 67.726562 C 55.989033 69.464439 52.042158 71.647656 48.566406 74.279297 C 45.140308 76.910938 42.43341 80.014785 40.447266 83.589844 C 38.461122 87.115249 37.46875 91.113207 37.46875 95.582031 C 37.46875 98.759862 38.015043 101.51589 39.107422 103.84961 C 40.199801 106.18333 41.613686 108.14351 43.351562 109.73242 C 42.010915 112.16545 40.993979 114.57366 40.298828 116.95703 C 39.653331 119.29075 39.330078 121.47592 39.330078 123.51172 C 39.330078 126.83851 40.199624 129.59454 41.9375 131.7793 C 43.675376 133.96406 46.28206 135.05664 49.757812 135.05664 C 53.680447 135.05664 57.355152 134.41013 60.78125 133.11914 C 64.257002 131.82815 67.434544 130.04188 70.314453 127.75781 C 72.350251 128.65158 74.584552 129.3207 77.017578 129.76758 C 79.450605 130.26411 82.057289 130.48715 84.837891 130.4375 C 86.972995 130.33819 89.057952 129.94124 91.09375 129.24609 C 93.179201 128.55094 95.065684 127.58314 96.753906 126.3418 C 98.442129 125.10046 99.782319 123.68462 100.77539 122.0957 C 101.81812 120.45713 102.33984 118.67087 102.33984 116.73438 L 102.33984 116.06445 C 102.33984 115.86584 102.31528 115.66736 102.26562 115.46875 C 102.26563 115.17083 102.09172 115.02148 101.74414 115.02148 C 101.39657 115.02148 101.22266 115.17083 101.22266 115.46875 L 101.22266 115.61719 C 101.47092 117.45437 101.14962 119.19151 100.25586 120.83008 C 99.411748 122.46865 98.194384 123.90905 96.605469 125.15039 C 95.016554 126.39173 93.203766 127.3841 91.167969 128.12891 C 89.132171 128.87371 87.022649 129.27066 84.837891 129.32031 C 82.255903 129.36997 79.823128 129.17149 77.539062 128.72461 C 75.30465 128.27773 73.244259 127.65774 71.357422 126.86328 C 75.230403 123.58614 78.457075 119.58819 81.039062 114.87109 C 81.982481 113.18287 83.148762 110.85031 84.539062 107.87109 C 85.979017 104.84222 87.568765 101.49077 89.306641 97.816406 C 91.09417 94.14204 92.980653 90.418205 94.966797 86.644531 C 97.002594 82.821204 99.087551 79.271278 101.22266 75.994141 C 103.40741 72.667349 105.59259 69.886756 107.77734 67.652344 C 111.45171 69.241259 114.38165 71.301651 116.56641 73.833984 C 118.80082 76.366318 119.94253 79.345386 119.99219 82.771484 C 119.99219 85.452779 119.12264 88.034898 117.38477 90.517578 C 115.64689 93.000258 113.28976 95.234559 110.31055 97.220703 C 107.33133 99.157194 103.9288 100.69586 100.10547 101.83789 C 96.331795 102.97992 92.360356 103.55078 88.189453 103.55078 C 87.494303 103.55078 87.146484 103.70013 87.146484 103.99805 C 87.146484 104.29597 87.494303 104.44531 88.189453 104.44531 C 92.906545 104.44531 97.473408 103.87445 101.89258 102.73242 C 106.31175 101.59039 110.28514 100.02521 113.81055 98.039062 C 117.33595 96.003265 120.14111 93.695268 122.22656 91.113281 C 124.36167 88.531294 125.47882 85.824396 125.57812 82.994141 C 125.72709 78.872892 124.33777 75.372096 121.4082 72.492188 C 118.47864 69.612279 114.63003 67.353413 109.86328 65.714844 C 110.95566 64.821079 112.02368 64.125442 113.06641 63.628906 C 114.10913 63.13237 115.12607 62.884766 116.11914 62.884766 C 116.76464 62.884766 117.36006 62.983026 117.90625 63.181641 C 118.15452 63.231294 118.32843 63.206729 118.42773 63.107422 C 118.5767 62.958461 118.65234 62.81107 118.65234 62.662109 C 118.65234 62.364188 118.503 62.190279 118.20508 62.140625 C 117.36097 61.892357 116.6162 61.767578 115.9707 61.767578 z M 86.402344 63.703125 C 89.927749 63.703125 93.352896 63.977248 96.679688 64.523438 C 100.00648 65.019974 103.0612 65.789306 105.8418 66.832031 C 104.25288 68.222332 102.76335 69.736431 101.37305 71.375 C 100.0324 73.013569 98.864166 74.503103 97.871094 75.84375 C 95.33876 79.319502 92.905985 83.067902 90.572266 87.089844 C 88.2882 91.062132 86.029334 95.084655 83.794922 99.15625 C 81.610163 103.17819 79.400428 107.02681 77.166016 110.70117 C 75.775715 112.98524 74.261616 115.36888 72.623047 117.85156 C 71.034132 120.28459 69.29504 122.56802 67.408203 124.70312 C 65.372406 123.26317 63.610702 121.62429 62.121094 119.78711 C 60.631486 117.94993 59.414122 116.03888 58.470703 114.05273 C 61.698187 113.75481 64.478781 113.01005 66.8125 111.81836 C 69.195873 110.57702 71.133439 109.08749 72.623047 107.34961 C 74.162308 105.56208 75.304024 103.62451 76.048828 101.53906 C 76.793632 99.453611 77.166016 97.417785 77.166016 95.431641 C 77.166016 93.296536 76.769067 91.336358 75.974609 89.548828 C 75.229805 87.761299 74.112655 86.320895 72.623047 85.228516 C 71.133439 84.136136 69.320652 83.589844 67.185547 83.589844 C 65.000788 83.589844 63.038657 84.185267 61.300781 85.376953 C 59.612559 86.518986 58.198673 88.084168 57.056641 90.070312 C 55.914608 92.056457 55.094192 94.290757 54.597656 96.773438 C 50.228139 100.24919 46.778427 104.0978 44.246094 108.31836 C 42.905447 106.8784 41.837426 105.13931 41.042969 103.10352 C 40.248511 101.01806 39.851563 98.609854 39.851562 95.878906 C 39.851562 91.509389 40.745674 87.58708 42.533203 84.111328 C 44.320733 80.635576 46.778073 77.631943 49.90625 75.099609 C 53.034427 72.517622 56.584353 70.381582 60.556641 68.693359 C 64.578582 67.005137 68.79958 65.765161 73.21875 64.970703 C 77.63792 64.126592 82.032827 63.703125 86.402344 63.703125 z M 212.27344 75.84375 C 211.47898 76.191325 210.58487 76.514578 209.5918 76.8125 C 208.59872 77.060768 207.68005 77.283807 206.83594 77.482422 C 206.58767 78.028611 206.04138 79.145762 205.19727 80.833984 C 204.40281 82.472553 203.435 84.45925 202.29297 86.792969 C 201.20059 89.077034 200.00779 91.50981 198.7168 94.091797 C 197.47546 96.62413 196.28461 99.056906 195.14258 101.39062 C 191.81579 101.14236 188.5626 101.88712 185.38477 103.625 C 182.25659 105.36288 179.82381 108.04521 178.08594 111.66992 C 177.89712 112.04756 177.70835 112.67877 177.51953 113.14258 C 177.07955 113.91572 176.69562 114.70336 176.22461 115.46875 C 175.08258 117.40524 173.71782 119.16694 172.12891 120.75586 C 171.78133 121.10343 171.18395 121.62516 170.33984 122.32031 C 169.49573 122.96581 168.80205 123.28906 168.25586 123.28906 C 167.80898 123.28906 167.53485 123.06407 167.43555 122.61719 C 167.33624 122.12065 167.28711 121.67457 167.28711 121.27734 L 167.28711 120.97852 C 167.28711 119.73718 167.55928 118.34786 168.10547 116.80859 C 168.70131 115.26933 169.29869 113.92914 169.89453 112.78711 C 170.68899 111.24785 171.45832 109.68267 172.20312 108.09375 C 172.99758 106.50483 173.81605 104.99074 174.66016 103.55078 C 173.8657 103.89836 173.02267 104.22161 172.12891 104.51953 C 171.2848 104.7678 170.43981 104.99084 169.5957 105.18945 L 166.39258 111.89258 C 166.045 112.58773 165.52523 113.60662 164.83008 114.94727 C 164.13493 116.23826 163.36364 117.57845 162.51953 118.96875 C 161.67542 120.3094 160.80783 121.45111 159.91406 122.39453 C 159.0203 123.33795 158.22445 123.81055 157.5293 123.81055 C 156.8838 123.81055 156.38859 123.51186 156.04102 122.91602 C 155.74309 122.32017 155.59375 121.55084 155.59375 120.60742 C 155.59375 119.11781 155.94157 117.35416 156.63672 115.31836 C 157.38152 113.23291 158.42302 111.19708 159.76367 109.21094 C 161.10432 107.22479 162.71863 105.58592 164.60547 104.29492 C 166.54196 103.00393 168.72713 102.35937 171.16016 102.35938 C 171.50773 102.35938 172.02946 102.31024 172.72461 102.21094 C 173.46941 102.11163 173.8418 102.01142 173.8418 101.91211 C 173.8418 101.8128 173.34463 101.68802 172.35156 101.53906 C 171.95433 101.43976 171.53282 101.39062 171.08594 101.39062 L 169.89453 101.39062 C 166.86566 101.39062 163.91116 102.28474 161.03125 104.07227 C 159.08863 105.2651 157.54726 106.97267 156.18945 108.91406 C 155.56903 109.80114 154.90067 110.62656 154.40234 111.66992 C 154.27366 111.94159 154.12694 112.43848 153.99414 112.76367 C 153.2066 114.14843 152.2881 115.85622 151.64648 116.88281 C 150.4548 118.8193 149.13917 120.43362 147.69922 121.72461 C 146.25926 123.0156 145.14211 123.66016 144.34766 123.66016 C 143.70216 123.66016 143.37891 123.16495 143.37891 122.17188 C 143.37891 120.53331 144.22389 117.70163 145.91211 113.67969 C 146.75622 111.64389 147.4499 109.85762 147.99609 108.31836 C 148.54228 106.72944 148.81641 105.43838 148.81641 104.44531 C 148.81641 102.8564 147.99599 102.06055 146.35742 102.06055 C 145.81123 102.06055 145.16668 102.11163 144.42188 102.21094 C 143.67707 102.26059 143.03056 102.33429 142.48438 102.43359 L 141.66602 102.58203 C 141.91428 101.48965 142.03906 100.39707 142.03906 99.304688 C 142.03906 98.460576 141.91428 97.742328 141.66602 97.146484 C 141.4674 96.500988 141.07045 96.177734 140.47461 96.177734 C 139.68015 96.177734 139.08473 96.474469 138.6875 97.070312 C 138.29027 97.666156 138.08984 98.386358 138.08984 99.230469 C 138.08984 100.17389 138.29027 101.11713 138.6875 102.06055 C 139.13438 102.95431 139.72981 103.52517 140.47461 103.77344 C 140.42496 103.97205 140.12627 104.61856 139.58008 105.71094 C 139.08354 106.75366 138.43899 108.02016 137.64453 109.50977 C 137.05216 110.6945 136.40323 111.9069 135.74805 113.12305 C 135.48652 113.58293 135.24907 114.04872 134.97656 114.50586 C 134.68425 115.01129 134.40737 115.41964 134.12109 115.88281 C 133.03621 117.64265 131.81025 119.29132 130.3457 120.75586 C 129.99813 121.10343 129.40075 121.62516 128.55664 122.32031 C 127.71253 122.96581 127.01885 123.28906 126.47266 123.28906 C 126.02577 123.28906 125.75165 123.06407 125.65234 122.61719 C 125.55304 122.12065 125.50391 121.67457 125.50391 121.27734 L 125.50391 120.97852 C 125.50391 119.73718 125.77608 118.34786 126.32227 116.80859 C 126.91811 115.26933 127.51548 113.92914 128.11133 112.78711 C 128.90579 111.24785 129.67512 109.68267 130.41992 108.09375 C 131.21438 106.50483 132.03284 104.99074 132.87695 103.55078 C 132.0825 103.89836 131.23947 104.22161 130.3457 104.51953 C 129.50159 104.7678 128.65661 104.99084 127.8125 105.18945 L 124.60938 111.89258 C 124.2618 112.58773 123.74007 113.60662 123.04492 114.94727 C 122.34977 116.23826 121.58044 117.57845 120.73633 118.96875 C 119.89222 120.3094 119.02462 121.45111 118.13086 122.39453 C 117.23709 123.33795 116.44124 123.81055 115.74609 123.81055 C 115.1006 123.81055 114.60539 123.51186 114.25781 122.91602 C 113.95989 122.32017 113.81055 121.55084 113.81055 120.60742 C 113.81055 119.11781 114.15837 117.35416 114.85352 115.31836 C 115.59832 113.23291 116.63982 111.19708 117.98047 109.21094 C 119.32112 107.22479 120.93543 105.58592 122.82227 104.29492 C 124.75876 103.00393 126.94393 102.35937 129.37695 102.35938 C 129.72453 102.35938 130.24626 102.31024 130.94141 102.21094 C 131.68621 102.11163 132.05859 102.01142 132.05859 101.91211 C 132.05859 101.8128 131.56143 101.68802 130.56836 101.53906 C 130.17113 101.43976 129.74962 101.39062 129.30273 101.39062 L 128.11133 101.39062 C 125.08246 101.39062 122.12796 102.28474 119.24805 104.07227 C 116.41779 105.81014 114.20806 108.34313 112.61914 111.66992 C 112.17226 112.61334 111.69966 113.87983 111.20312 115.46875 C 110.70659 117.05767 110.45898 118.57176 110.45898 120.01172 C 110.45898 121.40202 110.75572 122.5683 111.35156 123.51172 C 111.99706 124.45514 113.16529 124.92773 114.85352 124.92773 C 115.89624 124.92773 116.93774 124.45514 117.98047 123.51172 C 119.07285 122.51865 120.04261 121.37693 120.88672 120.08594 C 121.78048 118.79494 122.40047 117.70236 122.74805 116.80859 C 122.59909 117.30513 122.44974 117.90055 122.30078 118.5957 C 122.20147 119.2412 122.15234 119.91227 122.15234 120.60742 C 122.15234 121.6998 122.37538 122.69217 122.82227 123.58594 C 123.26915 124.43005 124.03848 124.85156 125.13086 124.85156 C 126.27289 124.85156 127.41461 124.40548 128.55664 123.51172 C 129.69867 122.61795 130.66843 121.77297 131.46289 120.97852 C 132.22434 120.12921 132.79892 119.19996 133.43945 118.29883 L 133.54688 118.29883 L 133.62109 118.22266 C 133.84157 117.90934 134.09246 117.44981 134.31836 117.10938 C 134.46582 116.87714 134.67462 116.67105 134.81445 116.43555 C 135.05998 116.02203 135.30526 115.56032 135.55078 115.13672 C 135.90599 114.55083 136.23402 114.10461 136.60156 113.45703 C 137.64429 111.61985 138.58753 109.83163 139.43164 108.09375 C 140.32541 106.30622 140.96996 104.9169 141.36719 103.92383 C 142.31061 103.67556 143.05537 103.47709 143.60156 103.32812 C 144.14775 103.12951 144.59578 103.0293 144.94336 103.0293 C 145.73782 103.0293 146.13477 103.40168 146.13477 104.14648 C 146.13477 104.89129 145.83608 105.88561 145.24023 107.12695 C 144.69404 108.36829 144.07406 109.63283 143.37891 110.92383 C 142.68376 112.16517 142.13746 113.23319 141.74023 114.12695 C 140.99543 115.61656 140.44914 116.98132 140.10156 118.22266 C 139.75399 119.464 139.58008 120.53202 139.58008 121.42578 C 139.58008 123.7595 140.62353 124.92773 142.70898 124.92773 C 145.39028 124.92773 147.74741 123.61016 149.7832 120.97852 C 150.7154 119.77348 151.74041 118.23014 152.81836 116.49414 C 152.52067 117.69839 152.24219 118.89678 152.24219 120.01172 C 152.24219 121.40202 152.53892 122.5683 153.13477 123.51172 C 153.78026 124.45514 154.9485 124.92773 156.63672 124.92773 C 157.67944 124.92773 158.72095 124.45514 159.76367 123.51172 C 160.85605 122.51865 161.82581 121.37693 162.66992 120.08594 C 163.56369 118.79494 164.18367 117.70236 164.53125 116.80859 C 164.38229 117.30513 164.23295 117.90055 164.08398 118.5957 C 163.98468 119.2412 163.93555 119.91227 163.93555 120.60742 C 163.93555 121.6998 164.15859 122.69217 164.60547 123.58594 C 165.05235 124.43005 165.82168 124.85156 166.91406 124.85156 C 168.0561 124.85156 169.19781 124.40548 170.33984 123.51172 C 171.48188 122.61795 172.45164 121.77297 173.24609 120.97852 C 174.47322 119.6098 175.51855 118.16346 176.43164 116.66016 C 176.17754 117.83067 175.92578 119.00013 175.92578 120.08594 C 175.92578 121.42658 176.22447 122.5683 176.82031 123.51172 C 177.46581 124.45514 178.60752 124.92773 180.24609 124.92773 C 181.28882 124.92773 182.33227 124.45514 183.375 123.51172 C 184.46738 122.51865 185.43519 121.37693 186.2793 120.08594 C 187.17306 118.79494 187.79305 117.70236 188.14062 116.80859 C 187.99166 117.30513 187.86884 117.87599 187.76953 118.52148 C 187.67022 119.16698 187.61914 119.83805 187.61914 120.5332 C 187.61914 121.62558 187.81957 122.61795 188.2168 123.51172 C 188.66368 124.40548 189.45758 124.85156 190.59961 124.85156 C 191.74164 124.85156 192.88336 124.40548 194.02539 123.51172 C 195.21708 122.61795 196.18488 121.77297 196.92969 120.97852 C 197.79191 120.05242 198.43489 119.04435 199.13281 118.05664 C 199.14138 118.05766 199.15584 118.07422 199.16406 118.07422 C 199.26337 118.07422 199.3125 118.04965 199.3125 118 C 199.51805 117.70309 199.70918 117.33348 199.91211 117.02344 C 200.04085 116.82031 200.23338 116.64117 200.35547 116.43555 C 200.60691 116.01207 200.84193 115.53953 201.08984 115.10547 C 201.36357 114.64065 201.65122 114.24388 201.91992 113.75391 C 202.81369 112.21464 203.6341 110.72511 204.37891 109.28516 C 204.67683 108.73897 205.04921 108.02072 205.49609 107.12695 C 205.99263 106.18353 206.53892 105.33855 207.13477 104.59375 C 207.73061 103.84895 208.32603 103.47656 208.92188 103.47656 C 209.36876 103.47656 209.5918 103.72417 209.5918 104.2207 C 209.5918 104.56828 209.49158 105.01631 209.29297 105.5625 C 209.09435 106.10869 208.87131 106.72868 208.62305 107.42383 C 208.0272 108.86378 207.33157 110.40245 206.53711 112.04102 C 205.79231 113.62993 205.12319 115.21968 204.52734 116.80859 C 203.98115 118.39751 203.70703 119.88704 203.70703 121.27734 C 203.70703 122.36972 203.95659 123.26383 204.45312 123.95898 C 204.99931 124.60448 205.71952 124.92773 206.61328 124.92773 C 209.24492 124.92773 211.60205 123.61016 213.6875 120.97852 C 213.87201 120.74129 214.08856 120.36174 214.27734 120.10547 C 214.3613 121.36643 214.87109 122.53516 215.92188 123.58594 C 217.11356 124.72797 219.29873 125.29883 222.47656 125.29883 C 225.1082 125.29883 227.39163 124.75254 229.32812 123.66016 C 231.11565 122.66708 232.65627 121.40059 233.94727 119.86133 C 235.20553 118.3127 236.33695 116.63799 237.35938 114.85352 C 237.1301 115.90514 237 116.97674 237 118.07422 C 237 119.96106 237.44803 121.64906 238.3418 123.13867 C 239.23556 124.57863 240.74966 125.29883 242.88477 125.29883 C 244.7716 125.29883 247.05503 124.00777 249.73633 121.42578 C 252.46728 118.84379 255.0494 114.79671 257.48242 109.28516 C 257.58173 109.18585 257.5326 109.08759 257.33398 108.98828 C 257.18502 108.83932 257.03568 108.76367 256.88672 108.76367 C 256.78741 108.76367 256.73828 108.79019 256.73828 108.83984 C 254.95075 112.71282 253.18709 115.76559 251.44922 118 C 249.761 120.23441 248.1732 121.82416 246.68359 122.76758 C 245.24364 123.66134 244.00171 124.10742 242.95898 124.10742 C 242.06522 124.10742 241.39415 123.73504 240.94727 122.99023 C 240.55004 122.24543 240.35156 121.30219 240.35156 120.16016 C 240.35156 118.76986 240.5746 117.23119 241.02148 115.54297 C 241.71663 116.0395 242.51249 116.28711 243.40625 116.28711 C 244.94551 116.28711 246.38396 115.81451 247.72461 114.87109 C 249.06526 113.87802 250.18241 112.66261 251.07617 111.22266 C 251.96994 109.7827 252.49166 108.39143 252.64062 107.05078 C 252.69028 106.80251 252.71484 106.60404 252.71484 106.45508 L 252.71484 105.85938 C 252.71484 104.71734 252.44267 103.7741 251.89648 103.0293 C 251.35029 102.23484 250.38249 101.83789 248.99219 101.83789 C 247.30397 101.83789 245.73878 102.38418 244.29883 103.47656 C 242.85887 104.56894 241.6189 105.88457 240.57617 107.42383 C 240.27561 107.87467 240.13658 108.27179 239.87695 108.70898 C 239.81731 108.75785 239.70334 108.75304 239.68164 108.83984 C 238.88718 110.32945 237.99307 111.99289 237 113.83008 C 236.00693 115.61761 234.86521 117.33018 233.57422 118.96875 C 232.33288 120.60732 230.89248 121.89838 229.25391 122.8418 C 228.31049 123.38799 227.16877 123.8095 225.82812 124.10742 C 224.53713 124.35569 223.2952 124.4559 222.10352 124.40625 C 223.69243 123.90971 225.03457 123.13843 226.12695 122.0957 C 227.26899 121.00332 228.16114 119.54031 228.80664 117.70312 C 229.00526 117.15694 229.13003 116.58412 229.17969 115.98828 C 229.22934 115.39244 229.25391 114.79702 229.25391 114.20117 C 229.25391 112.61226 229.08 111.04903 228.73242 109.50977 C 228.4345 107.9705 228.13777 106.6038 227.83984 105.41211 C 227.79019 105.16384 227.73911 104.9408 227.68945 104.74219 L 227.68945 104.07227 C 227.68945 102.78127 228.06184 101.76434 228.80664 101.01953 C 229.55144 100.27473 230.37186 100.02517 231.26562 100.27344 C 231.51389 100.32309 231.73693 100.29853 231.93555 100.19922 C 232.13416 100.09991 232.23437 99.950568 232.23438 99.751953 C 232.23437 99.454032 231.91112 99.157297 231.26562 98.859375 C 230.62013 98.611107 230.00014 98.486328 229.4043 98.486328 C 228.16296 98.486328 226.97016 98.98349 225.82812 99.976562 C 224.73575 100.96963 223.71881 102.28526 222.77539 103.92383 C 221.851 105.4807 220.95289 107.13916 220.07617 108.88672 C 220.06324 108.90194 220.02891 108.8953 220.01953 108.91406 C 218.76253 111.32032 217.78434 112.97285 216.78711 114.67773 C 216.25039 114.96811 215.71445 115.37881 215.17773 116.28711 C 214.80028 116.89684 214.56689 117.56124 214.41016 118.25586 C 213.48045 119.51213 212.559 120.79967 211.52734 121.72461 C 210.08739 122.96595 209.02132 123.58594 208.32617 123.58594 C 207.58137 123.58594 207.20898 123.01508 207.20898 121.87305 C 207.20898 120.83032 207.45659 119.63948 207.95312 118.29883 C 208.59862 116.56095 209.29426 114.84643 210.03906 113.1582 C 210.83352 111.42033 211.55372 109.70775 212.19922 108.01953 C 212.49714 107.17542 212.72018 106.43065 212.86914 105.78516 C 213.06776 105.09001 213.16602 104.49458 213.16602 103.99805 C 213.16602 103.00497 212.79363 102.35847 212.04883 102.06055 C 211.40333 101.81228 210.83247 101.68945 210.33594 101.68945 C 209.24356 101.68945 208.27575 102.0864 207.43164 102.88086 C 206.58753 103.62566 205.84276 104.5689 205.19727 105.71094 C 204.60142 106.80332 204.05513 107.87134 203.55859 108.91406 C 203.21787 109.59551 202.80424 110.35113 202.42773 111.06836 C 201.73146 112.34903 201.02383 113.62949 200.26562 114.91016 C 200.09492 115.1978 199.91889 115.48007 199.74219 115.76172 C 198.62931 117.65111 197.33647 119.38032 195.8125 120.9043 C 195.167 121.54979 194.49788 122.09609 193.80273 122.54297 C 193.10758 122.98985 192.48564 123.21289 191.93945 123.21289 C 190.99603 123.21289 190.52539 122.51921 190.52539 121.12891 C 190.52539 119.88757 190.82213 118.32238 191.41797 116.43555 C 192.06347 114.49906 192.88388 112.36497 193.87695 110.03125 C 194.91968 107.69753 196.06139 105.26476 197.30273 102.73242 C 197.551 102.58346 197.67578 102.40955 197.67578 102.21094 L 197.67578 102.06055 C 199.06608 99.279945 200.50453 96.52587 201.99414 93.794922 C 203.48375 91.063974 204.89959 88.50642 206.24023 86.123047 C 207.63054 83.69002 208.8479 81.578545 209.89062 79.791016 C 210.983 78.003486 211.7769 76.687861 212.27344 75.84375 z M 67.185547 84.558594 C 70.015802 84.558594 72.176408 85.602049 73.666016 87.6875 C 75.155624 89.772951 75.900391 92.254857 75.900391 95.134766 C 75.900391 97.071256 75.528007 99.057952 74.783203 101.09375 C 74.088053 103.12955 72.995467 105.0406 71.505859 106.82812 C 70.065905 108.566 68.228553 110.03097 65.994141 111.22266 C 63.809382 112.36469 61.202698 113.03381 58.173828 113.23242 C 57.379371 111.29593 56.783948 109.33575 56.386719 107.34961 C 55.98949 105.31381 55.791016 103.32712 55.791016 101.39062 C 55.791016 100.69547 55.815581 99.999838 55.865234 99.304688 C 55.914888 98.559883 55.988583 97.8662 56.087891 97.220703 C 58.222995 95.532481 60.631206 93.991863 63.3125 92.601562 C 64.057304 92.204334 64.429688 91.858468 64.429688 91.560547 C 64.429687 91.312279 64.255778 91.1875 63.908203 91.1875 C 63.560628 91.1875 63.21281 91.285761 62.865234 91.484375 C 61.723202 92.030565 60.606051 92.652506 59.513672 93.347656 C 58.470946 93.993153 57.45401 94.662271 56.460938 95.357422 C 57.156088 92.229245 58.422582 89.647126 60.259766 87.611328 C 62.146602 85.575531 64.454599 84.558594 67.185547 84.558594 z M 215.25195 91.560547 C 214.4575 91.560547 213.76186 91.857282 213.16602 92.453125 C 212.61983 93.048968 212.34766 93.76917 212.34766 94.613281 C 212.34766 95.258778 212.5707 95.829636 213.01758 96.326172 C 213.51411 96.773054 214.10954 96.996094 214.80469 96.996094 C 215.59915 96.996094 216.29478 96.723924 216.89062 96.177734 C 217.48647 95.631545 217.78516 94.960473 217.78516 94.166016 C 217.78516 93.421212 217.5356 92.801224 217.03906 92.304688 C 216.54253 91.808151 215.9471 91.560547 215.25195 91.560547 z M 54.300781 98.708984 C 54.15182 99.900671 54.076172 101.11803 54.076172 102.35938 C 54.076172 104.19656 54.250081 106.03391 54.597656 107.87109 C 54.945231 109.70828 55.466959 111.52106 56.162109 113.30859 C 54.175965 113.30859 52.215787 112.98534 50.279297 112.33984 C 48.39246 111.64469 46.704452 110.6258 45.214844 109.28516 C 46.307223 107.39832 47.596329 105.56097 49.085938 103.77344 C 50.625199 101.98591 52.364291 100.2979 54.300781 98.708984 z M 229.32812 99.380859 C 229.6757 99.380859 230.02352 99.47912 230.37109 99.677734 C 228.83183 99.926002 227.73925 100.67077 227.09375 101.91211 C 226.44825 103.1038 226.07587 104.39486 225.97656 105.78516 C 225.92691 106.67892 225.90234 107.96998 225.90234 109.6582 C 225.90234 111.34643 225.82865 113.15921 225.67969 115.0957 C 225.58038 116.98254 225.25713 118.69511 224.71094 120.23438 C 224.26406 121.47572 223.51929 122.41896 222.47656 123.06445 C 221.43384 123.70995 220.4169 124.0332 219.42383 124.0332 C 218.53006 124.0332 217.75878 123.75908 217.11328 123.21289 C 216.46778 122.6667 216.14648 121.79911 216.14648 120.60742 C 216.14648 120.35915 216.17105 120.08503 216.2207 119.78711 C 216.27036 119.43953 216.34405 119.09172 216.44336 118.74414 C 216.69163 117.90003 217.11314 117.1307 217.70898 116.43555 C 218.35448 115.7404 219.1012 115.39258 219.94531 115.39258 C 220.04462 115.39258 220.14288 115.4191 220.24219 115.46875 C 220.39115 115.46875 220.54049 115.49332 220.68945 115.54297 C 220.78876 115.34435 220.71311 115.0211 220.46484 114.57422 C 220.26623 114.12734 219.77102 113.9043 218.97656 113.9043 C 218.67864 113.9043 218.4556 113.92886 218.30664 113.97852 L 220.54102 109.95703 C 221.33547 108.51708 222.05372 107.15037 222.69922 105.85938 C 223.34472 104.56838 224.01579 103.45123 224.71094 102.50781 C 225.15782 101.91197 225.82889 101.24285 226.72266 100.49805 C 227.61642 99.753243 228.48401 99.380859 229.32812 99.380859 z M 194.69531 102.35938 L 190.00391 111.89258 C 189.65633 112.58773 189.1346 113.60662 188.43945 114.94727 C 187.7443 116.23826 186.95041 117.57845 186.05664 118.96875 C 185.21253 120.3094 184.34298 121.45111 183.44922 122.39453 C 182.60511 123.33795 181.83578 123.81055 181.14062 123.81055 C 180.49513 123.81055 179.99797 123.51186 179.65039 122.91602 C 179.35247 122.32017 179.20312 121.52628 179.20312 120.5332 C 179.20312 119.0436 179.55094 117.27994 180.24609 115.24414 C 180.94124 113.20834 181.96013 111.22165 183.30078 109.28516 C 184.64143 107.29901 186.25379 105.66209 188.14062 104.37109 C 190.07712 103.0801 192.26229 102.40903 194.69531 102.35938 z M 249.88477 102.65625 C 250.43096 102.65625 250.80334 102.90581 251.00195 103.40234 C 251.25022 103.84923 251.375 104.39552 251.375 105.04102 C 251.375 105.73617 251.27479 106.35615 251.07617 106.90234 C 250.57964 108.19334 249.91052 109.4844 249.06641 110.77539 C 248.2223 112.01673 247.27905 113.06019 246.23633 113.9043 C 245.1936 114.69875 244.12558 115.0957 243.0332 115.0957 C 242.48701 115.0957 241.91616 114.94636 241.32031 114.64844 C 241.41962 114.25121 241.51788 113.87883 241.61719 113.53125 C 241.76615 113.13402 241.91549 112.76164 242.06445 112.41406 C 242.51134 111.17272 243.18241 109.80797 244.07617 108.31836 C 244.96994 106.7791 245.93774 105.46347 246.98047 104.37109 C 248.02319 103.22906 248.991 102.65625 249.88477 102.65625 z M 44.394531 110.55273 C 46.132407 111.84373 48.043455 112.78697 50.128906 113.38281 C 52.264011 113.97866 54.400051 114.22626 56.535156 114.12695 C 57.528228 116.31171 58.843853 118.42123 60.482422 120.45703 C 62.170644 122.44318 64.181906 124.18227 66.515625 125.67188 C 64.231559 128.1049 61.69857 130.0916 58.917969 131.63086 C 56.187021 133.17012 53.134257 133.93945 49.757812 133.93945 C 46.728943 133.93945 44.443558 132.97165 42.904297 131.03516 C 41.365035 129.09867 40.595703 126.63937 40.595703 123.66016 C 40.595703 121.72367 40.918956 119.63871 41.564453 117.4043 C 42.20995 115.12023 43.153191 112.8368 44.394531 110.55273 z "
         d="m 115.9707,61.767578 c -1.29099,0 -2.63118,0.298688 -4.02148,0.894531 -1.34065,0.595844 -2.65823,1.389741 -3.94922,2.382813 -5.80947,-1.688223 -12.139991,-2.533203 -18.992188,-2.533203 -4.816399,0 -9.681949,0.448032 -14.597656,1.341797 -4.915706,0.844111 -9.582782,2.13517 -14.001953,3.873046 -4.41917,1.737877 -8.366045,3.921094 -11.841797,6.552735 -3.426098,2.631641 -6.132996,5.735488 -8.11914,9.310547 -1.986144,3.525405 -2.978516,7.523363 -2.978516,11.992187 0,3.177831 0.546293,5.933859 1.638672,8.267579 1.092379,2.33372 2.506264,4.2939 4.24414,5.88281 -1.340647,2.43303 -2.357583,4.84124 -3.052734,7.22461 -0.645497,2.33372 -0.96875,4.51889 -0.96875,6.55469 0,3.32679 0.869546,6.08282 2.607422,8.26758 1.737876,2.18476 4.34456,3.27734 7.820312,3.27734 3.922635,0 7.59734,-0.64651 11.023438,-1.9375 3.475752,-1.29099 6.653294,-3.07726 9.533203,-5.36133 2.035798,0.89377 4.270099,1.56289 6.703125,2.00977 2.433027,0.49653 5.039711,0.71957 7.820313,0.66992 2.135104,-0.0993 4.220061,-0.49626 6.255859,-1.19141 2.085451,-0.69515 3.971934,-1.66295 5.660156,-2.90429 1.688223,-1.24134 3.028413,-2.65718 4.021484,-4.2461 1.04273,-1.63857 1.56445,-3.42483 1.56445,-5.36132 v -0.66993 c 0,-0.19861 -0.0246,-0.39709 -0.0742,-0.5957 1e-5,-0.29792 -0.1739,-0.44727 -0.52148,-0.44727 -0.34757,0 -0.52148,0.14935 -0.52148,0.44727 v 0.14844 c 0.24826,1.83718 -0.073,3.57432 -0.9668,5.21289 -0.844112,1.63857 -2.061476,3.07897 -3.650391,4.32031 -1.588915,1.24134 -3.401703,2.23371 -5.4375,2.97852 -2.035798,0.7448 -4.14532,1.14175 -6.330078,1.1914 -2.581988,0.0497 -5.014763,-0.14882 -7.298829,-0.5957 -2.234412,-0.44688 -4.294803,-1.06687 -6.18164,-1.86133 3.872981,-3.27714 7.099653,-7.27509 9.68164,-11.99219 0.943419,-1.68822 2.1097,-4.02078 3.5,-7 1.439955,-3.02887 3.029703,-6.38032 4.767579,-10.054684 1.787529,-3.674366 3.674012,-7.398201 5.660156,-11.171875 2.035797,-3.823327 4.120754,-7.373253 6.255863,-10.65039 2.18475,-3.326792 4.36993,-6.107385 6.55468,-8.341797 3.67437,1.588915 6.60431,3.649307 8.78907,6.18164 2.23441,2.532334 3.37612,5.511402 3.42578,8.9375 0,2.681295 -0.86955,5.263414 -2.60742,7.746094 -1.73788,2.48268 -4.09501,4.716981 -7.07422,6.703125 -2.97922,1.936491 -6.38175,3.475157 -10.20508,4.617187 -3.773675,1.14203 -7.745114,1.71289 -11.916017,1.71289 -0.69515,0 -1.042969,0.14935 -1.042969,0.44727 0,0.29792 0.347819,0.44726 1.042969,0.44726 4.717092,0 9.283955,-0.57086 13.703127,-1.71289 4.41917,-1.14203 8.39256,-2.70721 11.91797,-4.693358 3.5254,-2.035797 6.33056,-4.343794 8.41601,-6.925781 2.13511,-2.581987 3.25226,-5.288885 3.35156,-8.11914 0.14897,-4.121249 -1.24035,-7.622045 -4.16992,-10.501953 -2.92956,-2.879909 -6.77817,-5.138775 -11.54492,-6.777344 1.09238,-0.893765 2.1604,-1.589402 3.20313,-2.085938 1.04272,-0.496536 2.05966,-0.74414 3.05273,-0.74414 0.6455,0 1.24092,0.09826 1.78711,0.296875 0.24827,0.04965 0.42218,0.02509 0.52148,-0.07422 0.14897,-0.148961 0.22461,-0.296352 0.22461,-0.445313 0,-0.297921 -0.14934,-0.47183 -0.44726,-0.521484 -0.84411,-0.248268 -1.58888,-0.373047 -2.23438,-0.373047 z m -29.568356,1.935547 c 3.525405,0 6.950552,0.274123 10.277344,0.820313 3.326792,0.496536 6.381512,1.265868 9.162112,2.308593 -1.58892,1.390301 -3.07845,2.9044 -4.46875,4.542969 -1.34065,1.638569 -2.508884,3.128103 -3.501956,4.46875 -2.532334,3.475752 -4.965109,7.224152 -7.298828,11.246094 -2.284066,3.972288 -4.542932,7.994811 -6.777344,12.066406 -2.184759,4.02194 -4.394494,7.87056 -6.628906,11.54492 -1.390301,2.28407 -2.9044,4.66771 -4.542969,7.15039 -1.588915,2.43303 -3.328007,4.71646 -5.214844,6.85156 -2.035797,-1.43995 -3.797501,-3.07883 -5.287109,-4.91601 -1.489608,-1.83718 -2.706972,-3.74823 -3.650391,-5.73438 3.227484,-0.29792 6.008078,-1.04268 8.341797,-2.23437 2.383373,-1.24134 4.320939,-2.73087 5.810547,-4.46875 1.539261,-1.78753 2.680977,-3.7251 3.425781,-5.81055 0.744804,-2.085449 1.117188,-4.121275 1.117188,-6.107419 0,-2.135105 -0.396949,-4.095283 -1.191407,-5.882813 -0.744804,-1.787529 -1.861954,-3.227933 -3.351562,-4.320312 -1.489608,-1.09238 -3.302395,-1.638672 -5.4375,-1.638672 -2.184759,0 -4.14689,0.595423 -5.884766,1.787109 -1.688222,1.142033 -3.102108,2.707215 -4.24414,4.693359 -1.142033,1.986145 -1.962449,4.220445 -2.458985,6.703126 -4.369517,3.475752 -7.819229,7.324362 -10.351562,11.544922 -1.340647,-1.43996 -2.408668,-3.17905 -3.203125,-5.21484 -0.794458,-2.08546 -1.191406,-4.493666 -1.191407,-7.224614 0,-4.369517 0.894112,-8.291826 2.681641,-11.767578 1.78753,-3.475752 4.24487,-6.479385 7.373047,-9.011719 3.128177,-2.581987 6.678103,-4.718027 10.650391,-6.40625 4.021941,-1.688222 8.242939,-2.928198 12.662109,-3.722656 4.41917,-0.844111 8.814077,-1.267578 13.183594,-1.267578 z M 212.27344,75.84375 c -0.79446,0.347575 -1.68857,0.670828 -2.68164,0.96875 -0.99308,0.248268 -1.91175,0.471307 -2.75586,0.669922 -0.24827,0.546189 -0.79456,1.66334 -1.63867,3.351562 -0.79446,1.638569 -1.76227,3.625266 -2.9043,5.958985 -1.09238,2.284065 -2.28518,4.716841 -3.57617,7.298828 -1.24134,2.532333 -2.43219,4.965109 -3.57422,7.298823 -3.32679,-0.24826 -6.57998,0.4965 -9.75781,2.23438 -3.12818,1.73788 -5.56096,4.42021 -7.29883,8.04492 -0.18882,0.37764 -0.37759,1.00885 -0.56641,1.47266 -0.43998,0.77314 -0.82391,1.56078 -1.29492,2.32617 -1.14203,1.93649 -2.50679,3.69819 -4.0957,5.28711 -0.34758,0.34757 -0.94496,0.8693 -1.78907,1.56445 -0.84411,0.6455 -1.53779,0.96875 -2.08398,0.96875 -0.44688,0 -0.72101,-0.22499 -0.82031,-0.67187 -0.0993,-0.49654 -0.14844,-0.94262 -0.14844,-1.33985 v -0.29882 c 0,-1.24134 0.27217,-2.63066 0.81836,-4.16993 0.59584,-1.53926 1.19322,-2.87945 1.78906,-4.02148 0.79446,-1.53926 1.56379,-3.10444 2.30859,-4.69336 0.79446,-1.58892 1.61293,-3.10301 2.45704,-4.54297 -0.79446,0.34758 -1.63749,0.67083 -2.53125,0.96875 -0.84411,0.24827 -1.6891,0.47131 -2.53321,0.66992 l -3.20312,6.70313 c -0.34758,0.69515 -0.86735,1.71404 -1.5625,3.05469 -0.69515,1.29099 -1.46644,2.63118 -2.31055,4.02148 -0.84411,1.34065 -1.7117,2.48236 -2.60547,3.42578 -0.89376,0.94342 -1.68961,1.41602 -2.38476,1.41602 -0.6455,0 -1.14071,-0.29869 -1.48828,-0.89453 -0.29793,-0.59585 -0.44727,-1.36518 -0.44727,-2.3086 0,-1.48961 0.34782,-3.25326 1.04297,-5.28906 0.7448,-2.08545 1.7863,-4.12128 3.12695,-6.10742 1.34065,-1.98615 2.95496,-3.62502 4.8418,-4.91602 1.93649,-1.29099 4.12166,-1.93555 6.55469,-1.93554 0.34757,0 0.8693,-0.0491 1.56445,-0.14844 0.7448,-0.0993 1.11719,-0.19952 1.11719,-0.29883 0,-0.0993 -0.49717,-0.22409 -1.49024,-0.37305 -0.39723,-0.0993 -0.81874,-0.14844 -1.26562,-0.14844 h -1.19141 c -3.02887,0 -5.98337,0.89412 -8.86328,2.68165 -1.94262,1.19283 -3.48399,2.9004 -4.8418,4.84179 -0.62042,0.88708 -1.28878,1.7125 -1.78711,2.75586 -0.12868,0.27167 -0.2754,0.76856 -0.4082,1.09375 -0.78754,1.38476 -1.70604,3.09255 -2.34766,4.11914 -1.19168,1.93649 -2.50731,3.55081 -3.94726,4.8418 -1.43996,1.29099 -2.55711,1.93555 -3.35156,1.93555 -0.6455,0 -0.96875,-0.49521 -0.96875,-1.48828 0,-1.63857 0.84498,-4.47025 2.5332,-8.49219 0.84411,-2.0358 1.53779,-3.82207 2.08398,-5.36133 0.54619,-1.58892 0.82032,-2.87998 0.82032,-3.87305 0,-1.58891 -0.82042,-2.38476 -2.45899,-2.38476 -0.54619,0 -1.19074,0.0511 -1.93554,0.15039 -0.74481,0.0496 -1.39132,0.12335 -1.9375,0.22265 l -0.81836,0.14844 c 0.24826,-1.09238 0.37304,-2.18496 0.37304,-3.277342 0,-0.844112 -0.12478,-1.56236 -0.37304,-2.158204 -0.19862,-0.645496 -0.59557,-0.96875 -1.19141,-0.96875 -0.79446,0 -1.38988,0.296735 -1.78711,0.892578 -0.39723,0.595844 -0.59766,1.316046 -0.59766,2.160157 0,0.943421 0.20043,1.886661 0.59766,2.830081 0.44688,0.89376 1.04231,1.46462 1.78711,1.71289 -0.0497,0.19861 -0.34834,0.84512 -0.89453,1.9375 -0.49654,1.04272 -1.14109,2.30922 -1.93555,3.79883 -0.59237,1.18473 -1.2413,2.39713 -1.89648,3.61328 -0.26153,0.45988 -0.49898,0.92567 -0.77149,1.38281 -0.29231,0.50543 -0.56919,0.91378 -0.85547,1.37695 -1.08488,1.75984 -2.31084,3.40851 -3.77539,4.87305 -0.34757,0.34757 -0.94495,0.8693 -1.78906,1.56445 -0.84411,0.6455 -1.53779,0.96875 -2.08398,0.96875 -0.44689,0 -0.72101,-0.22499 -0.82032,-0.67187 -0.0993,-0.49654 -0.14843,-0.94262 -0.14843,-1.33985 v -0.29882 c 0,-1.24134 0.27217,-2.63066 0.81836,-4.16993 0.59584,-1.53926 1.19321,-2.87945 1.78906,-4.02148 0.79446,-1.53926 1.56379,-3.10444 2.30859,-4.69336 0.79446,-1.58892 1.61292,-3.10301 2.45703,-4.54297 -0.79445,0.34758 -1.63748,0.67083 -2.53125,0.96875 -0.84411,0.24827 -1.68909,0.47131 -2.5332,0.66992 l -3.20312,6.70313 c -0.34758,0.69515 -0.86931,1.71404 -1.56446,3.05469 -0.69515,1.29099 -1.46448,2.63118 -2.30859,4.02148 -0.84411,1.34065 -1.71171,2.48236 -2.60547,3.42578 -0.89377,0.94342 -1.68962,1.41602 -2.38477,1.41602 -0.64549,0 -1.1407,-0.29869 -1.48828,-0.89453 -0.29792,-0.59585 -0.44726,-1.36518 -0.44726,-2.3086 0,-1.48961 0.34782,-3.25326 1.04297,-5.28906 0.7448,-2.08545 1.7863,-4.12128 3.12695,-6.10742 1.34065,-1.98615 2.95496,-3.62502 4.8418,-4.91602 1.93649,-1.29099 4.12166,-1.93555 6.55468,-1.93554 0.34758,0 0.86931,-0.0491 1.56446,-0.14844 0.7448,-0.0993 1.11718,-0.19952 1.11718,-0.29883 0,-0.0993 -0.49716,-0.22409 -1.49023,-0.37305 -0.39723,-0.0993 -0.81874,-0.14844 -1.26563,-0.14844 h -1.1914 c -3.02887,0 -5.98337,0.89412 -8.86328,2.68165 -2.83026,1.73787 -5.03999,4.27086 -6.62891,7.59765 -0.44688,0.94342 -0.91948,2.20991 -1.41602,3.79883 -0.49653,1.58892 -0.74414,3.10301 -0.74414,4.54297 0,1.3903 0.29674,2.55658 0.89258,3.5 0.6455,0.94342 1.81373,1.41601 3.50196,1.41601 1.04272,0 2.08422,-0.47259 3.12695,-1.41601 1.09238,-0.99307 2.06214,-2.13479 2.90625,-3.42578 0.89376,-1.291 1.51375,-2.38358 1.86133,-3.27735 -0.14896,0.49654 -0.29831,1.09196 -0.44727,1.78711 -0.0993,0.6455 -0.14844,1.31657 -0.14844,2.01172 0,1.09238 0.22304,2.08475 0.66993,2.97852 0.44688,0.84411 1.21621,1.26562 2.30859,1.26562 1.14203,0 2.28375,-0.44608 3.42578,-1.33984 1.14203,-0.89377 2.11179,-1.73875 2.90625,-2.5332 0.76145,-0.84931 1.33603,-1.77856 1.97656,-2.67969 h 0.10743 l 0.0742,-0.0762 c 0.22048,-0.31332 0.47137,-0.77285 0.69727,-1.11328 0.14746,-0.23224 0.35626,-0.43833 0.49609,-0.67383 0.24553,-0.41352 0.49081,-0.87523 0.73633,-1.29883 0.35521,-0.58589 0.68324,-1.03211 1.05078,-1.67969 1.04273,-1.83718 1.98597,-3.6254 2.83008,-5.36328 0.89377,-1.78753 1.53832,-3.17685 1.93555,-4.16992 0.94342,-0.24827 1.68818,-0.44674 2.23437,-0.59571 0.54619,-0.19861 0.99422,-0.29882 1.3418,-0.29882 0.79446,0 1.19141,0.37238 1.19141,1.11718 0,0.74481 -0.29869,1.73913 -0.89454,2.98047 -0.54619,1.24134 -1.16617,2.50588 -1.86132,3.79688 -0.69515,1.24134 -1.24145,2.30936 -1.63868,3.20312 -0.7448,1.48961 -1.29109,2.85437 -1.63867,4.09571 -0.34757,1.24134 -0.52148,2.30936 -0.52148,3.20312 0,2.33372 1.04345,3.50195 3.1289,3.50195 2.6813,0 5.03843,-1.31757 7.07422,-3.94921 0.9322,-1.20504 1.95721,-2.74838 3.03516,-4.48438 -0.29769,1.20425 -0.57617,2.40264 -0.57617,3.51758 0,1.3903 0.29673,2.55658 0.89258,3.5 0.64549,0.94342 1.81373,1.41601 3.50195,1.41601 1.04272,0 2.08423,-0.47259 3.12695,-1.41601 1.09238,-0.99307 2.06214,-2.13479 2.90625,-3.42578 0.89377,-1.291 1.51375,-2.38358 1.86133,-3.27735 -0.14896,0.49654 -0.2983,1.09196 -0.44727,1.78711 -0.0993,0.6455 -0.14843,1.31657 -0.14843,2.01172 0,1.09238 0.22304,2.08475 0.66992,2.97852 0.44688,0.84411 1.21621,1.26562 2.30859,1.26562 1.14204,0 2.28375,-0.44608 3.42578,-1.33984 1.14204,-0.89377 2.1118,-1.73875 2.90625,-2.5332 1.22713,-1.36872 2.27246,-2.81506 3.18555,-4.31836 -0.2541,1.17051 -0.50586,2.33997 -0.50586,3.42578 0,1.34064 0.29869,2.48236 0.89453,3.42578 0.6455,0.94342 1.78721,1.41601 3.42578,1.41601 1.04273,0 2.08618,-0.47259 3.12891,-1.41601 1.09238,-0.99307 2.06019,-2.13479 2.9043,-3.42578 0.89376,-1.291 1.51375,-2.38358 1.86132,-3.27735 -0.14896,0.49654 -0.27178,1.0674 -0.37109,1.71289 -0.0993,0.6455 -0.15039,1.31657 -0.15039,2.01172 0,1.09238 0.20043,2.08475 0.59766,2.97852 0.44688,0.89376 1.24078,1.33984 2.38281,1.33984 1.14203,0 2.28375,-0.44608 3.42578,-1.33984 1.19169,-0.89377 2.15949,-1.73875 2.9043,-2.5332 0.86222,-0.9261 1.5052,-1.93417 2.20312,-2.92188 0.009,0.001 0.023,0.0176 0.0312,0.0176 0.0993,0 0.14844,-0.0246 0.14844,-0.0742 0.20555,-0.29691 0.39668,-0.66652 0.59961,-0.97656 0.12874,-0.20313 0.32127,-0.38227 0.44336,-0.58789 0.25144,-0.42348 0.48646,-0.89602 0.73437,-1.33008 0.27373,-0.46482 0.56138,-0.86159 0.83008,-1.35156 0.89377,-1.53927 1.71418,-3.0288 2.45899,-4.46875 0.29792,-0.54619 0.6703,-1.26444 1.11718,-2.15821 0.49654,-0.94342 1.04283,-1.7884 1.63868,-2.5332 0.59584,-0.7448 1.19126,-1.11719 1.78711,-1.11719 0.44688,0 0.66992,0.24761 0.66992,0.74414 0,0.34758 -0.10022,0.79561 -0.29883,1.3418 -0.19862,0.54619 -0.42166,1.16618 -0.66992,1.86133 -0.59585,1.43995 -1.29148,2.97862 -2.08594,4.61719 -0.7448,1.58891 -1.41392,3.17866 -2.00977,4.76757 -0.54619,1.58892 -0.82031,3.07845 -0.82031,4.46875 0,1.09238 0.24956,1.98649 0.74609,2.68164 0.54619,0.6455 1.2664,0.96875 2.16016,0.96875 2.63164,0 4.98877,-1.31757 7.07422,-3.94921 0.18451,-0.23723 0.40106,-0.61678 0.58984,-0.87305 0.084,1.26096 0.59375,2.42969 1.64454,3.48047 1.19168,1.14203 3.37685,1.71289 6.55468,1.71289 2.63164,0 4.91507,-0.54629 6.85156,-1.63867 1.78753,-0.99308 3.32815,-2.25957 4.61915,-3.79883 1.25826,-1.54863 2.38968,-3.22334 3.41211,-5.00781 -0.22928,1.05162 -0.35938,2.12322 -0.35938,3.2207 0,1.88684 0.44803,3.57484 1.3418,5.06445 0.89376,1.43996 2.40786,2.16016 4.54297,2.16016 1.88683,0 4.17026,-1.29106 6.85156,-3.87305 2.73095,-2.58199 5.31307,-6.62907 7.74609,-12.14062 0.0993,-0.0993 0.0502,-0.19757 -0.14844,-0.29688 -0.14896,-0.14896 -0.2983,-0.22461 -0.44726,-0.22461 -0.0993,0 -0.14844,0.0265 -0.14844,0.0762 -1.78753,3.87298 -3.55119,6.92575 -5.28906,9.16016 -1.68822,2.23441 -3.27602,3.82416 -4.76563,4.76758 -1.43995,0.89376 -2.68188,1.33984 -3.72461,1.33984 -0.89376,0 -1.56483,-0.37238 -2.01171,-1.11719 -0.39723,-0.7448 -0.59571,-1.68804 -0.59571,-2.83007 0,-1.3903 0.22304,-2.92897 0.66992,-4.61719 0.69515,0.49653 1.49101,0.74414 2.38477,0.74414 1.53926,0 2.97771,-0.4726 4.31836,-1.41602 1.34065,-0.99307 2.4578,-2.20848 3.35156,-3.64843 0.89377,-1.43996 1.41549,-2.83123 1.56445,-4.17188 0.0497,-0.24827 0.0742,-0.44674 0.0742,-0.5957 v -0.5957 c 0,-1.14204 -0.27217,-2.08528 -0.81836,-2.83008 -0.54619,-0.79446 -1.51399,-1.19141 -2.90429,-1.19141 -1.68822,0 -3.25341,0.54629 -4.69336,1.63867 -1.43996,1.09238 -2.67993,2.40801 -3.72266,3.94727 -0.30056,0.45084 -0.43959,0.84796 -0.69922,1.28515 -0.0596,0.0489 -0.17361,0.0441 -0.19531,0.13086 -0.79446,1.48961 -1.68857,3.15305 -2.68164,4.99024 -0.99307,1.78753 -2.13479,3.5001 -3.42578,5.13867 -1.24134,1.63857 -2.68174,2.92963 -4.32031,3.87305 -0.94342,0.54619 -2.08514,0.9677 -3.42579,1.26562 -1.29099,0.24827 -2.53292,0.34848 -3.7246,0.29883 1.58891,-0.49654 2.93105,-1.26782 4.02343,-2.31055 1.14204,-1.09238 2.03419,-2.55539 2.67969,-4.39258 0.19862,-0.54618 0.32339,-1.119 0.37305,-1.71484 0.0497,-0.59584 0.0742,-1.19126 0.0742,-1.78711 0,-1.58891 -0.17391,-3.15214 -0.52149,-4.6914 -0.29792,-1.53927 -0.59465,-2.90597 -0.89258,-4.09766 -0.0497,-0.24827 -0.10073,-0.47131 -0.15039,-0.66992 v -0.66992 c 0,-1.291 0.37239,-2.30793 1.11719,-3.05274 0.7448,-0.7448 1.56522,-0.99436 2.45898,-0.74609 0.24827,0.0496 0.47131,0.0251 0.66993,-0.0742 0.19861,-0.0993 0.29882,-0.248652 0.29883,-0.447267 -10e-6,-0.297921 -0.32326,-0.594656 -0.96876,-0.892578 -0.64549,-0.248268 -1.26548,-0.373047 -1.86132,-0.373047 -1.24134,0 -2.43414,0.497162 -3.57618,1.490234 -1.09237,0.993068 -2.10931,2.308698 -3.05273,3.947268 -0.92439,1.55687 -1.8225,3.21533 -2.69922,4.96289 -0.0129,0.0152 -0.0473,0.009 -0.0566,0.0273 -1.257,2.40626 -2.23519,4.05879 -3.23242,5.76367 -0.53672,0.29038 -1.07266,0.70108 -1.60938,1.60938 -0.37745,0.60973 -0.61084,1.27413 -0.76757,1.96875 -0.92971,1.25627 -1.85116,2.54381 -2.88282,3.46875 -1.43995,1.24134 -2.50602,1.86133 -3.20117,1.86133 -0.7448,0 -1.11719,-0.57086 -1.11719,-1.71289 0,-1.04273 0.24761,-2.23357 0.74414,-3.57422 0.6455,-1.73788 1.34114,-3.4524 2.08594,-5.14063 0.79446,-1.73787 1.51466,-3.45045 2.16016,-5.13867 0.29792,-0.84411 0.52096,-1.58888 0.66992,-2.23437 0.19862,-0.69515 0.29688,-1.29058 0.29688,-1.78711 0,-0.99308 -0.37239,-1.63958 -1.11719,-1.9375 -0.6455,-0.24827 -1.21636,-0.3711 -1.71289,-0.3711 -1.09238,0 -2.06019,0.39695 -2.9043,1.19141 -0.84411,0.7448 -1.58888,1.68804 -2.23437,2.83008 -0.59585,1.09238 -1.14214,2.1604 -1.63868,3.20312 -0.34072,0.68145 -0.75435,1.43707 -1.13086,2.1543 -0.69627,1.28067 -1.4039,2.56113 -2.16211,3.8418 -0.1707,0.28764 -0.34673,0.56991 -0.52343,0.85156 -1.11288,1.88939 -2.40572,3.6186 -3.92969,5.14258 -0.6455,0.64549 -1.31462,1.19179 -2.00977,1.63867 -0.69515,0.44688 -1.31709,0.66992 -1.86328,0.66992 -0.94342,0 -1.41406,-0.69368 -1.41406,-2.08398 0,-1.24134 0.29674,-2.80653 0.89258,-4.69336 0.6455,-1.93649 1.46591,-4.07058 2.45898,-6.4043 1.04273,-2.33372 2.18444,-4.76649 3.42578,-7.29883 0.24827,-0.14896 0.37305,-0.32287 0.37305,-0.52148 v -0.15039 c 1.3903,-2.780605 2.82875,-5.53468 4.31836,-8.265628 1.48961,-2.730948 2.90545,-5.288502 4.24609,-7.671875 1.39031,-2.433027 2.60767,-4.544502 3.65039,-6.332031 1.09238,-1.78753 1.88628,-3.103155 2.38282,-3.947266 z M 67.185547,84.558594 c 2.830255,0 4.990861,1.043455 6.480469,3.128906 1.489608,2.085451 2.234375,4.567357 2.234375,7.447266 0,1.93649 -0.372384,3.923186 -1.117188,5.958984 -0.69515,2.0358 -1.787736,3.94685 -3.277344,5.73437 -1.439954,1.73788 -3.277306,3.20285 -5.511718,4.39454 -2.184759,1.14203 -4.791443,1.81115 -7.820313,2.00976 -0.794457,-1.93649 -1.38988,-3.89667 -1.787109,-5.88281 -0.397229,-2.0358 -0.595703,-4.02249 -0.595703,-5.95899 0,-0.69515 0.02457,-1.390782 0.07422,-2.085932 0.04965,-0.744805 0.123349,-1.438488 0.222657,-2.083985 2.135104,-1.688222 4.543315,-3.22884 7.224609,-4.619141 0.744804,-0.397228 1.117188,-0.743094 1.117188,-1.041015 -10e-7,-0.248268 -0.17391,-0.373047 -0.521485,-0.373047 -0.347575,0 -0.695393,0.09826 -1.042969,0.296875 -1.142032,0.54619 -2.259183,1.168131 -3.351562,1.863281 -1.042726,0.645497 -2.059662,1.314615 -3.052734,2.009766 0.69515,-3.128177 1.961644,-5.710296 3.798828,-7.746094 1.886836,-2.035797 4.194833,-3.052734 6.925781,-3.052734 z m 148.066403,7.001953 c -0.79445,0 -1.49009,0.296735 -2.08593,0.892578 -0.54619,0.595843 -0.81836,1.316045 -0.81836,2.160156 0,0.645497 0.22304,1.216355 0.66992,1.712891 0.49653,0.446882 1.09196,0.669922 1.78711,0.669922 0.79446,0 1.49009,-0.27217 2.08593,-0.81836 0.59585,-0.546189 0.89454,-1.217261 0.89454,-2.011718 0,-0.744804 -0.24956,-1.364792 -0.7461,-1.861328 -0.49653,-0.496537 -1.09196,-0.744141 -1.78711,-0.744141 z M 54.300781,98.708984 c -0.148961,1.191687 -0.224609,2.409046 -0.224609,3.650396 0,1.83718 0.173909,3.67453 0.521484,5.51171 0.347575,1.83719 0.869303,3.64997 1.564453,5.4375 -1.986144,0 -3.946322,-0.32325 -5.882812,-0.96875 -1.886837,-0.69515 -3.574845,-1.71404 -5.064453,-3.05468 1.092379,-1.88684 2.381485,-3.72419 3.871094,-5.51172 1.539261,-1.78753 3.278353,-3.47554 5.214843,-5.064456 z m 175.027339,0.671875 c 0.34758,0 0.6954,0.09826 1.04297,0.296875 -1.53926,0.248268 -2.63184,0.993036 -3.27734,2.234376 -0.6455,1.19169 -1.01788,2.48275 -1.11719,3.87305 -0.0497,0.89376 -0.0742,2.18482 -0.0742,3.87304 0,1.68823 -0.0737,3.50101 -0.22265,5.4375 -0.0993,1.88684 -0.42256,3.59941 -0.96875,5.13868 -0.44688,1.24134 -1.19165,2.18458 -2.23438,2.83007 -1.04272,0.6455 -2.05966,0.96875 -3.05273,0.96875 -0.89377,0 -1.66505,-0.27412 -2.31055,-0.82031 -0.6455,-0.54619 -0.9668,-1.41378 -0.9668,-2.60547 0,-0.24827 0.0246,-0.52239 0.0742,-0.82031 0.0497,-0.34758 0.12335,-0.69539 0.22266,-1.04297 0.24827,-0.84411 0.66978,-1.61344 1.26562,-2.30859 0.6455,-0.69515 1.39222,-1.04297 2.23633,-1.04297 0.0993,0 0.19757,0.0265 0.29688,0.0762 0.14896,0 0.2983,0.0246 0.44726,0.0742 0.0993,-0.19862 0.0237,-0.52187 -0.22461,-0.96875 -0.19861,-0.44688 -0.69382,-0.66992 -1.48828,-0.66992 -0.29792,0 -0.52096,0.0246 -0.66992,0.0742 l 2.23438,-4.02149 c 0.79445,-1.43995 1.5127,-2.80666 2.1582,-4.09765 0.6455,-1.291 1.31657,-2.40815 2.01172,-3.35157 0.44688,-0.59584 1.11795,-1.26496 2.01172,-2.00976 0.89376,-0.744807 1.76135,-1.117191 2.60546,-1.117191 z m -34.63281,2.978521 -4.6914,9.5332 c -0.34758,0.69515 -0.86931,1.71404 -1.56446,3.05469 -0.69515,1.29099 -1.48904,2.63118 -2.38281,4.02148 -0.84411,1.34065 -1.71366,2.48236 -2.60742,3.42578 -0.84411,0.94342 -1.61344,1.41602 -2.3086,1.41602 -0.64549,0 -1.14265,-0.29869 -1.49023,-0.89453 -0.29792,-0.59585 -0.44727,-1.38974 -0.44727,-2.38282 0,-1.4896 0.34782,-3.25326 1.04297,-5.28906 0.69515,-2.0358 1.71404,-4.02249 3.05469,-5.95898 1.34065,-1.98615 2.95301,-3.62307 4.83984,-4.91407 1.9365,-1.29099 4.12167,-1.96206 6.55469,-2.01171 z m 55.18946,0.29687 c 0.54619,0 0.91857,0.24956 1.11718,0.74609 0.24827,0.44689 0.37305,0.99318 0.37305,1.63868 0,0.69515 -0.10021,1.31513 -0.29883,1.86132 -0.49653,1.291 -1.16565,2.58206 -2.00976,3.87305 -0.84411,1.24134 -1.78736,2.2848 -2.83008,3.12891 -1.04273,0.79445 -2.11075,1.1914 -3.20313,1.1914 -0.54619,0 -1.11704,-0.14934 -1.71289,-0.44726 0.0993,-0.39723 0.19757,-0.76961 0.29688,-1.11719 0.14896,-0.39723 0.2983,-0.76961 0.44726,-1.11719 0.44689,-1.24134 1.11796,-2.60609 2.01172,-4.0957 0.89377,-1.53926 1.86157,-2.85489 2.9043,-3.94727 1.04272,-1.14203 2.01053,-1.71484 2.9043,-1.71484 z m -205.490239,7.89648 c 1.737876,1.291 3.648924,2.23424 5.734375,2.83008 2.135105,0.59585 4.271145,0.84345 6.40625,0.74414 0.993072,2.18476 2.308697,4.29428 3.947266,6.33008 1.688222,1.98615 3.699484,3.72524 6.033203,5.21485 -2.284066,2.43302 -4.817055,4.41972 -7.597656,5.95898 -2.730948,1.53926 -5.783712,2.30859 -9.160157,2.30859 -3.028869,0 -5.314254,-0.9678 -6.853515,-2.90429 -1.539262,-1.93649 -2.308594,-4.39579 -2.308594,-7.375 0,-1.93649 0.323253,-4.02145 0.96875,-6.25586 0.645497,-2.28407 1.588738,-4.5675 2.830078,-6.85157 z" />
      <path
         id="text6050"
         style="font-style:normal;font-variant:normal;font-weight:normal;font-stretch:normal;font-size:42.3333px;line-height:1.25;font-family:'Mea Culpa';-inkscape-font-specification:'Mea Culpa';fill:#333333;stroke:none;stroke-width:9.99993;stroke-dasharray:none;stroke-opacity:1;filter:url(#filter14058)"
         sodipodi:type="inkscape:offset"
         inkscape:radius="0"
         inkscape:original="M 240.53906 129.41016 C 240.08751 129.60771 239.58007 129.78965 239.01562 129.95898 C 238.4794 130.1001 237.97196 130.22695 237.49219 130.33984 L 234.44336 136.4375 L 233.2168 136.4375 C 233.10391 136.4375 233.00459 136.49258 232.91992 136.60547 C 232.83526 136.71836 232.79297 136.81768 232.79297 136.90234 C 232.79297 137.01523 232.85 137.07227 232.96289 137.07227 L 234.10547 137.07227 C 233.56925 138.11649 233.03232 139.20314 232.49609 140.33203 C 232.44769 140.4396 232.38707 140.60343 232.33789 140.71484 C 231.46474 142.36278 230.66276 143.79573 229.99805 144.81836 C 229.29249 145.94725 228.53133 146.8795 227.71289 147.61328 C 227.26134 148.03661 226.86601 148.34541 226.52734 148.54297 C 226.2169 148.7123 225.96318 148.79883 225.76562 148.79883 C 225.45518 148.79883 225.30078 148.54316 225.30078 148.03516 C 225.30078 147.55538 225.41289 146.94862 225.63867 146.21484 C 225.86445 145.48107 226.11817 144.71991 226.40039 143.92969 C 226.71083 143.11124 227.00684 142.37763 227.28906 141.72852 C 227.59951 141.05118 227.81094 140.55654 227.92383 140.24609 C 228.29072 139.34298 228.47461 138.58183 228.47461 137.96094 C 228.47461 136.94494 227.93768 136.4375 226.86523 136.4375 C 226.1879 136.4375 225.44149 136.81808 224.62305 137.58008 C 223.8046 138.31386 223.0287 139.20187 222.29492 140.24609 C 222.49248 139.68165 222.64688 139.17421 222.75977 138.72266 C 222.87265 138.2711 222.92969 137.89052 222.92969 137.58008 C 222.92969 136.98741 222.73105 136.60683 222.33594 136.4375 C 221.96905 136.29639 221.6455 136.22461 221.36328 136.22461 C 220.74239 136.22461 220.19071 136.45079 219.71094 136.90234 C 219.23116 137.3539 218.80829 137.91837 218.44141 138.5957 C 218.10912 139.18359 217.80747 139.74161 217.52148 140.2832 C 217.52043 140.28653 217.50977 140.28521 217.50977 140.28906 C 216.49377 142.49039 215.49168 144.22609 214.50391 145.49609 C 213.54435 146.76609 212.64159 147.66886 211.79492 148.20508 C 210.97648 148.71308 210.27235 148.9668 209.67969 148.9668 C 209.17169 148.9668 208.78916 148.75536 208.53516 148.33203 C 208.30938 147.9087 208.19727 147.37177 208.19727 146.72266 C 208.19727 145.93243 208.32413 145.05916 208.57812 144.09961 C 208.97324 144.38183 209.42559 144.52148 209.93359 144.52148 C 210.80848 144.52148 211.62667 144.25497 212.38867 143.71875 C 213.15067 143.15431 213.78497 142.46298 214.29297 141.64453 C 214.80097 140.82609 215.09697 140.03544 215.18164 139.27344 C 215.20986 139.13233 215.22461 139.01826 215.22461 138.93359 L 215.22461 138.5957 C 215.22461 137.94659 215.07021 137.40966 214.75977 136.98633 C 214.44932 136.53477 213.89764 136.31055 213.10742 136.31055 C 212.14787 136.31055 211.25985 136.61935 210.44141 137.24023 C 209.62296 137.86112 208.91688 138.60949 208.32422 139.48438 C 207.75977 140.33104 207.32216 141.13644 207.01172 141.89844 C 206.99902 141.93291 206.99098 141.97495 206.97852 142.00977 C 206.94643 142.03068 206.92243 142.02874 206.88477 142.06641 C 206.60254 142.57441 206.279 143.15362 205.91211 143.80273 C 205.54522 144.45184 205.1499 145.01632 204.72656 145.49609 C 204.33145 145.97587 203.92138 146.21484 203.49805 146.21484 C 203.13116 146.21484 202.83515 146.06044 202.60938 145.75 C 202.41182 145.43956 202.25742 145.1288 202.14453 144.81836 L 202.01562 144.31055 C 202.12851 144.16944 202.32715 143.83114 202.60938 143.29492 C 202.91982 142.73048 203.24336 142.08143 203.58203 141.34766 C 203.94892 140.61388 204.25967 139.89306 204.51367 139.1875 C 204.76767 138.45372 204.89453 137.86171 204.89453 137.41016 C 204.89453 136.61993 204.59853 136.22461 204.00586 136.22461 C 203.52608 136.22461 202.9911 136.60519 202.39844 137.36719 C 201.80577 138.10096 201.43799 139.20237 201.29688 140.66992 C 201.26865 140.92392 201.24111 141.20518 201.21289 141.51562 L 201.21289 142.44727 C 201.21289 142.81415 201.22568 143.1544 201.25391 143.46484 C 201.28213 143.77529 201.31162 144.01426 201.33984 144.18359 C 201.22695 144.46582 200.95849 144.94571 200.53516 145.62305 C 200.14005 146.27216 199.56083 146.93595 198.79883 147.61328 C 197.92394 148.34706 197.28964 148.71289 196.89453 148.71289 C 196.52764 148.71289 196.34375 148.44442 196.34375 147.9082 C 196.34375 147.45665 196.45586 146.8371 196.68164 146.04688 C 196.93564 145.22843 197.31817 144.22635 197.82617 143.04102 C 198.27773 141.96857 198.63077 141.05106 198.88477 140.28906 C 199.16699 139.49884 199.36367 138.83505 199.47656 138.29883 C 199.50478 138.15772 199.51953 138.03086 199.51953 137.91797 C 199.54775 137.80508 199.56055 137.69297 199.56055 137.58008 C 199.56055 137.1003 199.43369 136.74726 199.17969 136.52148 C 198.92569 136.26748 198.60214 136.14062 198.20703 136.14062 C 197.64259 136.14062 197.07812 136.3796 196.51367 136.85938 C 196.03389 137.28271 195.61103 137.81964 195.24414 138.46875 C 194.90547 139.08964 194.57998 139.6964 194.26953 140.28906 C 194.15269 140.54071 193.9719 140.84537 193.83789 141.11133 C 192.98608 142.84121 192.13844 144.42664 191.30664 145.49609 C 190.34709 146.76609 189.44432 147.66886 188.59766 148.20508 C 187.77921 148.71308 187.07313 148.9668 186.48047 148.9668 C 185.97247 148.9668 185.59189 148.75536 185.33789 148.33203 C 185.11211 147.9087 184.99805 147.37177 184.99805 146.72266 C 184.99805 145.93243 185.12491 145.05916 185.37891 144.09961 C 185.77402 144.38183 186.22638 144.52148 186.73438 144.52148 C 187.60926 144.52148 188.42745 144.25497 189.18945 143.71875 C 189.95145 143.15431 190.58575 142.46298 191.09375 141.64453 C 191.60175 140.82609 191.89971 140.03544 191.98438 139.27344 C 192.0126 139.13233 192.02539 139.01826 192.02539 138.93359 L 192.02539 138.5957 C 192.02539 137.94659 191.87099 137.40966 191.56055 136.98633 C 191.2501 136.53477 190.70038 136.31055 189.91016 136.31055 C 188.9506 136.31055 188.06063 136.61935 187.24219 137.24023 C 186.42374 137.86112 185.71767 138.60949 185.125 139.48438 C 184.56056 140.33104 184.12294 141.13644 183.8125 141.89844 C 183.61494 142.43466 183.4458 143.01192 183.30469 143.63281 C 183.16358 144.2537 183.09375 144.88995 183.09375 145.53906 C 183.09375 146.61151 183.34747 147.56935 183.85547 148.41602 C 184.36347 149.23446 185.22395 149.64453 186.4375 149.64453 C 187.50994 149.64453 188.80803 148.91091 190.33203 147.44336 C 191.88425 145.9758 193.35149 143.67563 194.73438 140.54297 C 194.7492 140.52814 194.70975 140.51287 194.71289 140.49805 C 194.71903 140.48619 194.72826 140.4708 194.73438 140.45898 C 194.90371 140.14854 195.11709 139.73847 195.37109 139.23047 C 195.65332 138.72247 195.96211 138.27011 196.30078 137.875 C 196.63945 137.45167 196.97969 137.24023 197.31836 137.24023 C 197.60058 137.24023 197.74023 137.43887 197.74023 137.83398 C 197.74023 138.25732 197.61337 138.80704 197.35938 139.48438 C 197.1336 140.13349 196.85234 140.81007 196.51367 141.51562 C 196.20323 142.22118 195.92002 142.82794 195.66602 143.33594 C 194.79113 145.22682 194.35352 146.66652 194.35352 147.6543 C 194.35352 148.83963 194.90519 149.43359 196.00586 149.43359 C 196.79608 149.43359 197.55724 149.17987 198.29102 148.67188 C 199.05302 148.13565 199.71681 147.51415 200.28125 146.80859 C 200.87392 146.10304 201.31153 145.48153 201.59375 144.94531 C 201.65019 145.22753 201.81934 145.59532 202.10156 146.04688 C 202.41201 146.47021 202.83487 146.68164 203.37109 146.68164 C 203.96376 146.68164 204.4712 146.483 204.89453 146.08789 C 205.31786 145.66456 205.71319 145.11483 206.08008 144.4375 C 206.20913 144.19926 206.36202 143.93858 206.49805 143.69336 C 206.36574 144.29542 206.29297 144.91054 206.29297 145.53906 C 206.29297 146.61151 206.54669 147.56935 207.05469 148.41602 C 207.56269 149.23446 208.42316 149.64453 209.63672 149.64453 C 210.70916 149.64453 212.00725 148.91091 213.53125 147.44336 C 214.55408 146.47632 215.52726 145.01231 216.47656 143.32227 C 216.54738 143.19695 216.63912 143.08185 216.70703 142.95508 C 217.13036 142.16486 217.55323 141.36141 217.97656 140.54297 C 218.1459 140.23252 218.35733 139.82245 218.61133 139.31445 C 218.89355 138.77823 219.2043 138.29833 219.54297 137.875 C 219.88164 137.45167 220.21993 137.24023 220.55859 137.24023 C 220.84082 137.24023 220.98242 137.45167 220.98242 137.875 C 220.98242 138.24189 220.86836 138.75128 220.64258 139.40039 C 220.44502 140.02128 220.20605 140.67032 219.92383 141.34766 C 219.64161 141.99677 219.38789 142.57403 219.16211 143.08203 C 218.767 144.06981 218.42675 144.86046 218.14453 145.45312 C 217.86231 146.01757 217.5958 146.58204 217.3418 147.14648 C 217.0878 147.71093 216.7623 148.44455 216.36719 149.34766 C 216.67763 149.23477 217.00313 149.17969 217.3418 149.17969 C 217.70869 149.17969 218.04698 149.12265 218.35742 149.00977 C 218.66787 148.89688 218.90684 148.62841 219.07617 148.20508 C 219.24551 147.75352 219.51397 147.10448 219.88086 146.25781 C 220.24775 145.38292 220.68536 144.45262 221.19336 143.46484 C 221.70136 142.47707 222.23829 141.53006 222.80273 140.62695 C 223.36718 139.72384 223.93165 138.99023 224.49609 138.42578 C 225.08876 137.83312 225.65323 137.53711 226.18945 137.53711 C 226.58456 137.53711 226.78125 137.721 226.78125 138.08789 C 226.78125 138.45478 226.62685 138.96222 226.31641 139.61133 C 226.00596 140.26044 225.65292 140.92423 225.25781 141.60156 C 224.89092 142.25067 224.59492 142.81514 224.36914 143.29492 C 223.94581 144.14159 223.63506 144.91749 223.4375 145.62305 C 223.23994 146.3286 223.14062 146.93536 223.14062 147.44336 C 223.14063 148.7698 223.73264 149.43359 224.91797 149.43359 C 225.93397 149.43359 226.85148 149.10809 227.66992 148.45898 C 228.51659 147.78165 229.34952 146.79431 230.16797 145.49609 C 230.39998 145.13262 230.68887 144.55089 230.93359 144.13867 C 230.90219 144.22035 230.87735 144.27063 230.8457 144.35352 C 230.47881 145.2284 230.29492 146.10363 230.29492 146.97852 C 230.29492 147.62763 230.43653 148.1921 230.71875 148.67188 C 231.00097 149.15165 231.46612 149.39063 232.11523 149.39062 C 232.79257 149.39063 233.45636 149.13691 234.10547 148.62891 C 234.75458 148.12091 235.28956 147.64101 235.71289 147.18945 C 236.47489 146.37101 237.12393 145.51053 237.66016 144.60742 C 237.72656 144.49558 237.78754 144.369 237.85352 144.25586 C 237.59594 145.11502 237.44922 145.94077 237.44922 146.72266 C 237.44922 147.48466 237.61836 148.13565 237.95703 148.67188 C 238.32392 149.17987 238.97296 149.43359 239.9043 149.43359 C 240.44052 149.43359 240.9922 149.23495 241.55664 148.83984 C 242.12108 148.44473 242.67081 147.89501 243.20703 147.18945 C 243.57392 147.55634 243.99679 147.74023 244.47656 147.74023 C 244.73056 147.74023 245.01377 147.66845 245.32422 147.52734 C 245.63466 147.38623 245.95821 147.16005 246.29688 146.84961 C 246.46544 146.69267 246.58862 146.42295 246.75 146.24805 C 246.74357 146.34272 246.67773 146.41457 246.67773 146.51172 C 246.67773 147.30194 247.00323 148.02276 247.65234 148.67188 C 248.32968 149.32099 249.57073 149.64453 251.37695 149.64453 C 252.87273 149.64453 254.17082 149.33378 255.27148 148.71289 C 256.28748 148.14845 257.16271 147.42958 257.89648 146.55469 C 258.63026 145.65158 259.29405 144.67703 259.88672 143.63281 C 260.47938 142.56037 261.05665 141.50321 261.62109 140.45898 C 261.67754 140.37432 261.67754 140.30254 261.62109 140.24609 C 261.56465 140.16143 261.49482 140.11914 261.41016 140.11914 C 261.26905 140.11914 261.18447 140.17617 261.15625 140.28906 C 260.70469 141.13573 260.19726 142.08078 259.63281 143.125 C 259.06837 144.141 258.41932 145.11554 257.68555 146.04688 C 256.97999 146.97821 256.15985 147.71183 255.22852 148.24805 C 254.69229 148.55849 254.04325 148.79746 253.28125 148.9668 C 252.54747 149.10791 251.84335 149.16494 251.16602 149.13672 C 252.06913 148.8545 252.83028 148.41688 253.45117 147.82422 C 254.10028 147.20333 254.60772 146.37039 254.97461 145.32617 C 255.0875 145.01573 255.15928 144.69218 255.1875 144.35352 C 255.21572 144.01485 255.22852 143.6746 255.22852 143.33594 C 255.22852 142.43283 255.13115 141.54481 254.93359 140.66992 C 254.76426 139.79503 254.59511 139.01913 254.42578 138.3418 C 254.39756 138.20069 254.36807 138.07383 254.33984 137.96094 L 254.33984 137.58008 C 254.33984 136.8463 254.55128 136.26708 254.97461 135.84375 C 255.39794 135.42042 255.86505 135.27881 256.37305 135.41992 C 256.51416 135.44814 256.64102 135.43535 256.75391 135.37891 C 256.8668 135.32246 256.92188 135.23789 256.92188 135.125 C 256.92187 134.95567 256.73994 134.78652 256.37305 134.61719 C 256.00616 134.47608 255.65312 134.4043 255.31445 134.4043 C 254.6089 134.4043 253.93036 134.68751 253.28125 135.25195 C 252.66036 135.8164 252.0831 136.56281 251.54688 137.49414 C 251.03095 138.36306 250.52886 139.29025 250.03906 140.26367 C 250.03322 140.26246 250.02732 140.24609 250.02148 140.24609 C 249.96504 140.24609 249.90996 140.28838 249.85352 140.37305 L 248.96484 142.02539 C 248.67823 142.59862 248.31219 143.20287 247.93945 143.81055 C 247.70225 143.99963 247.46572 144.12006 247.22852 144.52148 C 247.13523 144.67217 247.15746 144.86753 247.08789 145.02734 C 246.76143 145.47437 246.44705 145.95772 246.08594 146.30078 C 245.54972 146.837 244.99804 147.10547 244.43359 147.10547 C 244.06671 147.10547 243.75791 146.9914 243.50391 146.76562 C 243.89902 146.25763 244.2796 145.69315 244.64648 145.07227 C 245.01337 144.45138 245.36641 143.78759 245.70508 143.08203 C 245.9873 142.51759 246.24102 141.841 246.4668 141.05078 C 246.7208 140.23234 246.84766 139.45643 246.84766 138.72266 C 246.84766 138.0171 246.6913 137.42509 246.38086 136.94531 C 246.09864 136.46554 245.54891 136.22461 244.73047 136.22461 C 243.77091 136.22461 242.71375 136.73205 241.55664 137.74805 C 240.70277 138.47696 239.99418 139.49702 239.35547 140.65625 C 239.3303 140.6687 239.30742 140.675 239.26953 140.71289 C 238.70509 141.84178 238.08358 142.95597 237.40625 144.05664 C 236.75714 145.15731 235.98124 146.15939 235.07812 147.0625 C 234.71124 147.42939 234.33066 147.75293 233.93555 148.03516 C 233.54044 148.28916 233.1874 148.41602 232.87695 148.41602 C 232.36895 148.41602 232.11523 148.03544 232.11523 147.27344 L 232.11523 146.97852 C 232.11523 146.8374 232.12998 146.70859 232.1582 146.5957 C 232.38398 145.12815 232.83439 143.56355 233.51172 141.89844 C 234.21727 140.23333 235.00792 138.62449 235.88281 137.07227 L 239.01562 137.07227 C 239.12851 137.07227 239.22783 137.01523 239.3125 136.90234 C 239.39717 136.78945 239.43945 136.69014 239.43945 136.60547 C 239.43945 136.49258 239.38242 136.4375 239.26953 136.4375 L 236.26367 136.4375 C 237.08212 134.96995 237.88751 133.62762 238.67773 132.41406 C 239.46796 131.17229 240.08751 130.17216 240.53906 129.41016 z M 255.27148 134.91211 C 255.46904 134.91211 255.66768 134.96914 255.86523 135.08203 C 254.99035 135.22314 254.36884 135.64601 254.00195 136.35156 C 253.63506 137.0289 253.42363 137.76251 253.36719 138.55273 C 253.33897 139.06073 253.32422 139.79435 253.32422 140.75391 C 253.32422 141.71346 253.28193 142.74504 253.19727 143.8457 C 253.14082 144.91815 252.95693 145.89074 252.64648 146.76562 C 252.39248 147.47118 251.96962 148.00811 251.37695 148.375 C 250.78429 148.74189 250.20507 148.92578 249.64062 148.92578 C 249.13263 148.92578 248.69501 148.76943 248.32812 148.45898 C 247.96124 148.14854 247.7793 147.65585 247.7793 146.97852 C 247.7793 146.8374 247.79209 146.68105 247.82031 146.51172 C 247.84853 146.31416 247.89082 146.11748 247.94727 145.91992 C 248.08838 145.44014 248.3293 145.00253 248.66797 144.60742 C 249.03486 144.21231 249.45772 144.01367 249.9375 144.01367 C 249.99394 144.01367 250.05098 144.02842 250.10742 144.05664 C 250.19209 144.05664 250.27666 144.07139 250.36133 144.09961 C 250.41777 143.98672 250.37549 143.80283 250.23438 143.54883 C 250.12149 143.29483 249.83827 143.16797 249.38672 143.16797 C 249.21739 143.16797 249.09053 143.18076 249.00586 143.20898 L 250.27734 140.92383 C 250.7289 140.10538 251.13702 139.32948 251.50391 138.5957 C 251.87079 137.86193 252.25137 137.22763 252.64648 136.69141 C 252.90048 136.35274 253.28302 135.97021 253.79102 135.54688 C 254.29902 135.12354 254.79171 134.91211 255.27148 134.91211 z M 190.41797 136.77539 C 190.72841 136.77539 190.93985 136.917 191.05273 137.19922 C 191.19385 137.45322 191.26367 137.76397 191.26367 138.13086 C 191.26367 138.52597 191.20664 138.87706 191.09375 139.1875 C 190.81153 139.92128 190.43095 140.65489 189.95117 141.38867 C 189.47139 142.09423 188.93642 142.68819 188.34375 143.16797 C 187.75108 143.61952 187.14433 143.8457 186.52344 143.8457 C 186.21299 143.8457 185.88749 143.76113 185.54883 143.5918 C 185.60527 143.36602 185.66231 143.15263 185.71875 142.95508 C 185.80342 142.7293 185.88799 142.51787 185.97266 142.32031 C 186.22666 141.61476 186.60723 140.83885 187.11523 139.99219 C 187.62323 139.1173 188.17296 138.36894 188.76562 137.74805 C 189.35829 137.09894 189.90997 136.77539 190.41797 136.77539 z M 213.61523 136.77539 C 213.92568 136.77539 214.13711 136.917 214.25 137.19922 C 214.39111 137.45322 214.46289 137.76397 214.46289 138.13086 C 214.46289 138.52597 214.40586 138.87706 214.29297 139.1875 C 214.01075 139.92128 213.63017 140.65489 213.15039 141.38867 C 212.67061 142.09423 212.13368 142.68819 211.54102 143.16797 C 210.94835 143.61952 210.34159 143.8457 209.7207 143.8457 C 209.41026 143.8457 209.08671 143.76113 208.74805 143.5918 C 208.80449 143.36602 208.85957 143.15263 208.91602 142.95508 C 209.00068 142.7293 209.08526 142.51787 209.16992 142.32031 C 209.42392 141.61476 209.80645 140.83885 210.31445 139.99219 C 210.82245 139.1173 211.37218 138.36894 211.96484 137.74805 C 212.55751 137.09894 213.10723 136.77539 213.61523 136.77539 z M 245.02734 136.85938 C 245.4789 136.85938 245.78965 137.01573 245.95898 137.32617 C 246.15654 137.60839 246.25391 137.98897 246.25391 138.46875 C 246.25391 139.08964 246.12705 139.82326 245.87305 140.66992 C 245.61905 141.48837 245.2955 142.3341 244.90039 143.20898 C 244.98506 142.75743 244.94277 142.41914 244.77344 142.19336 C 244.63233 141.93936 244.43369 141.8125 244.17969 141.8125 C 243.89747 141.8125 243.61621 141.95411 243.33398 142.23633 C 243.05176 142.49033 242.81084 142.9004 242.61328 143.46484 C 242.50039 143.74707 242.43057 144.02832 242.40234 144.31055 C 242.37412 144.56455 242.35938 144.80352 242.35938 145.0293 C 242.35938 145.59374 242.43115 146.01856 242.57227 146.30078 L 242.82617 146.72266 C 242.37462 147.34354 241.937 147.85294 241.51367 148.24805 C 241.09034 148.61494 240.72255 148.79883 240.41211 148.79883 C 239.98878 148.79883 239.67802 148.65722 239.48047 148.375 C 239.31114 148.06456 239.22656 147.66923 239.22656 147.18945 C 239.22656 146.54034 239.35538 145.77723 239.60938 144.90234 C 239.8916 143.99923 240.24268 143.08368 240.66602 142.15234 C 241.11757 141.22101 241.59747 140.35858 242.10547 139.56836 C 242.64169 138.74992 243.16388 138.10087 243.67188 137.62109 C 244.17987 137.11309 244.63223 136.85938 245.02734 136.85938 z "
         d="m 240.53906,129.41016 c -0.45155,0.19755 -0.95899,0.37949 -1.52344,0.54882 -0.53622,0.14112 -1.04366,0.26797 -1.52343,0.38086 l -3.04883,6.09766 h -1.22656 c -0.11289,0 -0.21221,0.0551 -0.29688,0.16797 -0.0847,0.11289 -0.12695,0.21221 -0.12695,0.29687 0,0.11289 0.057,0.16993 0.16992,0.16993 h 1.14258 c -0.53622,1.04422 -1.07315,2.13087 -1.60938,3.25976 -0.0484,0.10757 -0.10902,0.2714 -0.1582,0.38281 -0.87315,1.64794 -1.67513,3.08089 -2.33984,4.10352 -0.70556,1.12889 -1.46672,2.06114 -2.28516,2.79492 -0.45155,0.42333 -0.84688,0.73213 -1.18555,0.92969 -0.31044,0.16933 -0.56416,0.25586 -0.76172,0.25586 -0.31044,0 -0.46484,-0.25567 -0.46484,-0.76367 0,-0.47978 0.11211,-1.08654 0.33789,-1.82032 0.22578,-0.73377 0.4795,-1.49493 0.76172,-2.28515 0.31044,-0.81845 0.60645,-1.55206 0.88867,-2.20117 0.31045,-0.67734 0.52188,-1.17198 0.63477,-1.48243 0.36689,-0.90311 0.55078,-1.66426 0.55078,-2.28515 0,-1.016 -0.53693,-1.52344 -1.60938,-1.52344 -0.67733,0 -1.42374,0.38058 -2.24218,1.14258 -0.81845,0.73378 -1.59435,1.62179 -2.32813,2.66601 0.19756,-0.56444 0.35196,-1.07188 0.46485,-1.52343 0.11288,-0.45156 0.16992,-0.83214 0.16992,-1.14258 0,-0.59267 -0.19864,-0.97325 -0.59375,-1.14258 -0.36689,-0.14111 -0.69044,-0.21289 -0.97266,-0.21289 -0.62089,0 -1.17257,0.22618 -1.65234,0.67773 -0.47978,0.45156 -0.90265,1.01603 -1.26953,1.69336 -0.33229,0.58789 -0.63394,1.14591 -0.91993,1.6875 -0.001,0.003 -0.0117,0.002 -0.0117,0.006 -1.016,2.20133 -2.01809,3.93703 -3.00586,5.20703 -0.95956,1.27 -1.86232,2.17277 -2.70899,2.70899 -0.81844,0.508 -1.52257,0.76172 -2.11523,0.76172 -0.508,0 -0.89053,-0.21144 -1.14453,-0.63477 -0.22578,-0.42333 -0.33789,-0.96026 -0.33789,-1.60937 0,-0.79023 0.12686,-1.6635 0.38085,-2.62305 0.39512,0.28222 0.84747,0.42187 1.35547,0.42187 0.87489,0 1.69308,-0.26651 2.45508,-0.80273 0.762,-0.56444 1.3963,-1.25577 1.9043,-2.07422 0.508,-0.81844 0.804,-1.60909 0.88867,-2.37109 0.0282,-0.14111 0.043,-0.25518 0.043,-0.33985 v -0.33789 c 0,-0.64911 -0.1544,-1.18604 -0.46484,-1.60937 -0.31045,-0.45156 -0.86213,-0.67578 -1.65235,-0.67578 -0.95955,0 -1.84757,0.3088 -2.66601,0.92968 -0.81845,0.62089 -1.52453,1.36926 -2.11719,2.24415 -0.56445,0.84666 -1.00206,1.65206 -1.3125,2.41406 -0.0127,0.0345 -0.0207,0.0765 -0.0332,0.11133 -0.0321,0.0209 -0.0561,0.019 -0.0937,0.0566 -0.28223,0.508 -0.60577,1.08721 -0.97266,1.73632 -0.36689,0.64911 -0.76221,1.21359 -1.18555,1.69336 -0.39511,0.47978 -0.80518,0.71875 -1.22851,0.71875 -0.36689,0 -0.6629,-0.1544 -0.88867,-0.46484 -0.19756,-0.31044 -0.35196,-0.6212 -0.46485,-0.93164 l -0.12891,-0.50781 c 0.11289,-0.14111 0.31153,-0.47941 0.59376,-1.01563 0.31044,-0.56444 0.63398,-1.21349 0.97265,-1.94726 0.36689,-0.73378 0.67764,-1.4546 0.93164,-2.16016 0.254,-0.73378 0.38086,-1.32579 0.38086,-1.77734 0,-0.79023 -0.296,-1.18555 -0.88867,-1.18555 -0.47978,0 -1.01476,0.38058 -1.60742,1.14258 -0.59267,0.73377 -0.96045,1.83518 -1.10156,3.30273 -0.0282,0.254 -0.0558,0.53526 -0.084,0.8457 v 0.93165 c 0,0.36688 0.0128,0.70713 0.041,1.01757 0.0282,0.31045 0.0577,0.54942 0.0859,0.71875 -0.11289,0.28223 -0.38135,0.76212 -0.80468,1.43946 -0.39511,0.64911 -0.97433,1.3129 -1.73633,1.99023 -0.87489,0.73378 -1.50919,1.09961 -1.9043,1.09961 -0.36689,0 -0.55078,-0.26847 -0.55078,-0.80469 0,-0.45155 0.11211,-1.0711 0.33789,-1.86132 0.254,-0.81845 0.63653,-1.82053 1.14453,-3.00586 0.45156,-1.07245 0.8046,-1.98996 1.0586,-2.75196 0.28222,-0.79022 0.4789,-1.45401 0.59179,-1.99023 0.0282,-0.14111 0.043,-0.26797 0.043,-0.38086 0.0282,-0.11289 0.041,-0.225 0.041,-0.33789 0,-0.47978 -0.12686,-0.83282 -0.38086,-1.0586 -0.254,-0.254 -0.57755,-0.38086 -0.97266,-0.38086 -0.56444,0 -1.12891,0.23898 -1.69336,0.71876 -0.47978,0.42333 -0.90264,0.96026 -1.26953,1.60937 -0.33867,0.62089 -0.66416,1.22765 -0.97461,1.82031 -0.11684,0.25165 -0.29763,0.55631 -0.43164,0.82227 -0.85181,1.72988 -1.69945,3.31531 -2.53125,4.38476 -0.95955,1.27 -1.86232,2.17277 -2.70898,2.70899 -0.81845,0.508 -1.52453,0.76172 -2.11719,0.76172 -0.508,0 -0.88858,-0.21144 -1.14258,-0.63477 -0.22578,-0.42333 -0.33984,-0.96026 -0.33984,-1.60937 0,-0.79023 0.12686,-1.6635 0.38086,-2.62305 0.39511,0.28222 0.84747,0.42187 1.35547,0.42187 0.87488,0 1.69307,-0.26651 2.45507,-0.80273 0.762,-0.56444 1.3963,-1.25577 1.9043,-2.07422 0.508,-0.81844 0.80596,-1.60909 0.89063,-2.37109 0.0282,-0.14111 0.041,-0.25518 0.041,-0.33985 v -0.33789 c 0,-0.64911 -0.1544,-1.18604 -0.46484,-1.60937 -0.31045,-0.45156 -0.86017,-0.67578 -1.65039,-0.67578 -0.95956,0 -1.84953,0.3088 -2.66797,0.92968 -0.81845,0.62089 -1.52452,1.36926 -2.11719,2.24415 -0.56444,0.84666 -1.00206,1.65206 -1.3125,2.41406 -0.19756,0.53622 -0.3667,1.11348 -0.50781,1.73437 -0.14111,0.62089 -0.21094,1.25714 -0.21094,1.90625 0,1.07245 0.25372,2.03029 0.76172,2.87696 0.508,0.81844 1.36848,1.22851 2.58203,1.22851 1.07244,0 2.37053,-0.73362 3.89453,-2.20117 1.55222,-1.46756 3.01946,-3.76773 4.40235,-6.90039 0.0148,-0.0148 -0.0246,-0.0301 -0.0215,-0.0449 0.006,-0.0119 0.0154,-0.0273 0.0215,-0.0391 0.16933,-0.31044 0.38271,-0.72051 0.63671,-1.22851 0.28223,-0.508 0.59102,-0.96036 0.92969,-1.35547 0.33867,-0.42333 0.67891,-0.63477 1.01758,-0.63477 0.28222,0 0.42187,0.19864 0.42187,0.59375 0,0.42334 -0.12686,0.97306 -0.38085,1.6504 -0.22578,0.64911 -0.50704,1.32569 -0.84571,2.03124 -0.31044,0.70556 -0.59365,1.31232 -0.84765,1.82032 -0.87489,1.89088 -1.3125,3.33058 -1.3125,4.31836 0,1.18533 0.55167,1.77929 1.65234,1.77929 0.79022,0 1.55138,-0.25372 2.28516,-0.76171 0.762,-0.53623 1.42579,-1.15773 1.99023,-1.86329 0.59267,-0.70555 1.03028,-1.32706 1.3125,-1.86328 0.0564,0.28222 0.22559,0.65001 0.50781,1.10157 0.31045,0.42333 0.73331,0.63476 1.26953,0.63476 0.59267,0 1.10011,-0.19864 1.52344,-0.59375 0.42333,-0.42333 0.81866,-0.97306 1.18555,-1.65039 0.12905,-0.23824 0.28194,-0.49892 0.41797,-0.74414 -0.13231,0.60206 -0.20508,1.21718 -0.20508,1.8457 0,1.07245 0.25372,2.03029 0.76172,2.87696 0.508,0.81844 1.36847,1.22851 2.58203,1.22851 1.07244,0 2.37053,-0.73362 3.89453,-2.20117 1.02283,-0.96704 1.99601,-2.43105 2.94531,-4.12109 0.0708,-0.12532 0.16256,-0.24042 0.23047,-0.36719 0.42333,-0.79022 0.8462,-1.59367 1.26953,-2.41211 0.16934,-0.31045 0.38077,-0.72052 0.63477,-1.22852 0.28222,-0.53622 0.59297,-1.01612 0.93164,-1.43945 0.33867,-0.42333 0.67696,-0.63477 1.01562,-0.63477 0.28223,0 0.42383,0.21144 0.42383,0.63477 0,0.36689 -0.11406,0.87628 -0.33984,1.52539 -0.19756,0.62089 -0.43653,1.26993 -0.71875,1.94727 -0.28222,0.64911 -0.53594,1.22637 -0.76172,1.73437 -0.39511,0.98778 -0.73536,1.77843 -1.01758,2.37109 -0.28222,0.56445 -0.54873,1.12892 -0.80273,1.69336 -0.254,0.56445 -0.5795,1.29807 -0.97461,2.20118 0.31044,-0.11289 0.63594,-0.16797 0.97461,-0.16797 0.36689,0 0.70518,-0.057 1.01562,-0.16992 0.31045,-0.11289 0.54942,-0.38136 0.71875,-0.80469 0.16934,-0.45156 0.4378,-1.1006 0.80469,-1.94727 0.36689,-0.87489 0.8045,-1.80519 1.3125,-2.79297 0.508,-0.98777 1.04493,-1.93478 1.60937,-2.83789 0.56445,-0.90311 1.12892,-1.63672 1.69336,-2.20117 0.59267,-0.59266 1.15714,-0.88867 1.69336,-0.88867 0.39511,0 0.5918,0.18389 0.5918,0.55078 0,0.36689 -0.1544,0.87433 -0.46484,1.52344 -0.31045,0.64911 -0.66349,1.3129 -1.0586,1.99023 -0.36689,0.64911 -0.66289,1.21358 -0.88867,1.69336 -0.42333,0.84667 -0.73408,1.62257 -0.93164,2.32813 -0.19756,0.70555 -0.29688,1.31231 -0.29688,1.82031 10e-6,1.32644 0.59202,1.99023 1.77735,1.99023 1.016,0 1.93351,-0.3255 2.75195,-0.97461 0.84667,-0.67733 1.6796,-1.66467 2.49805,-2.96289 0.23201,-0.36347 0.5209,-0.9452 0.76562,-1.35742 -0.0314,0.0817 -0.0562,0.13196 -0.0879,0.21485 -0.36689,0.87488 -0.55078,1.75011 -0.55078,2.625 0,0.64911 0.14161,1.21358 0.42383,1.69336 0.28222,0.47977 0.74737,0.71875 1.39648,0.71874 0.67734,10e-6 1.34113,-0.25371 1.99024,-0.76171 0.64911,-0.508 1.18409,-0.9879 1.60742,-1.43946 0.762,-0.81844 1.41104,-1.67892 1.94727,-2.58203 0.0664,-0.11184 0.12738,-0.23842 0.19336,-0.35156 -0.25758,0.85916 -0.4043,1.68491 -0.4043,2.4668 0,0.762 0.16914,1.41299 0.50781,1.94922 0.36689,0.50799 1.01593,0.76171 1.94727,0.76171 0.53622,0 1.0879,-0.19864 1.65234,-0.59375 0.56444,-0.39511 1.11417,-0.94483 1.65039,-1.65039 0.36689,0.36689 0.78976,0.55078 1.26953,0.55078 0.254,0 0.53721,-0.0718 0.84766,-0.21289 0.31044,-0.14111 0.63399,-0.36729 0.97266,-0.67773 0.16856,-0.15694 0.29174,-0.42666 0.45312,-0.60156 -0.006,0.0947 -0.0723,0.16652 -0.0723,0.26367 0,0.79022 0.3255,1.51104 0.97461,2.16016 0.67734,0.64911 1.91839,0.97265 3.72461,0.97265 1.49578,0 2.79387,-0.31075 3.89453,-0.93164 1.016,-0.56444 1.89123,-1.28331 2.625,-2.1582 0.73378,-0.90311 1.39757,-1.87766 1.99024,-2.92188 0.59266,-1.07244 1.16993,-2.1296 1.73437,-3.17383 0.0565,-0.0847 0.0565,-0.15644 0,-0.21289 -0.0564,-0.0847 -0.12627,-0.12695 -0.21093,-0.12695 -0.14111,0 -0.22569,0.057 -0.25391,0.16992 -0.45156,0.84667 -0.95899,1.79172 -1.52344,2.83594 -0.56444,1.016 -1.21349,1.99054 -1.94726,2.92188 -0.70556,0.93133 -1.5257,1.66495 -2.45703,2.20117 -0.53623,0.31044 -1.18527,0.54941 -1.94727,0.71875 -0.73378,0.14111 -1.4379,0.19814 -2.11523,0.16992 0.90311,-0.28222 1.66426,-0.71984 2.28515,-1.3125 0.64911,-0.62089 1.15655,-1.45383 1.52344,-2.49805 0.11289,-0.31044 0.18467,-0.63399 0.21289,-0.97265 0.0282,-0.33867 0.041,-0.67892 0.041,-1.01758 0,-0.90311 -0.0974,-1.79113 -0.29493,-2.66602 -0.16933,-0.87489 -0.33848,-1.65079 -0.50781,-2.32812 -0.0282,-0.14111 -0.0577,-0.26797 -0.0859,-0.38086 v -0.38086 c 0,-0.73378 0.21144,-1.313 0.63477,-1.73633 0.42333,-0.42333 0.89044,-0.56494 1.39844,-0.42383 0.14111,0.0282 0.26797,0.0154 0.38086,-0.041 0.11289,-0.0564 0.16797,-0.14102 0.16797,-0.25391 -10e-6,-0.16933 -0.18194,-0.33848 -0.54883,-0.50781 -0.36689,-0.14111 -0.71993,-0.21289 -1.0586,-0.21289 -0.70555,0 -1.38409,0.28321 -2.0332,0.84765 -0.62089,0.56445 -1.19815,1.31086 -1.73437,2.24219 -0.51593,0.86892 -1.01802,1.79611 -1.50782,2.76953 -0.006,-0.001 -0.0117,-0.0176 -0.0176,-0.0176 -0.0564,0 -0.11152,0.0423 -0.16796,0.12696 l -0.88868,1.65234 c -0.28661,0.57323 -0.65265,1.17748 -1.02539,1.78516 -0.2372,0.18908 -0.47373,0.30951 -0.71093,0.71093 -0.0933,0.15069 -0.0711,0.34605 -0.14063,0.50586 -0.32646,0.44703 -0.64084,0.93038 -1.00195,1.27344 -0.53622,0.53622 -1.0879,0.80469 -1.65235,0.80469 -0.36688,0 -0.67568,-0.11407 -0.92968,-0.33985 0.39511,-0.50799 0.77569,-1.07247 1.14257,-1.69335 0.36689,-0.62089 0.71993,-1.28468 1.0586,-1.99024 0.28222,-0.56444 0.53594,-1.24103 0.76172,-2.03125 0.254,-0.81844 0.38086,-1.59435 0.38086,-2.32812 0,-0.70556 -0.15636,-1.29757 -0.4668,-1.77735 -0.28222,-0.47977 -0.83195,-0.7207 -1.65039,-0.7207 -0.95956,0 -2.01672,0.50744 -3.17383,1.52344 -0.85387,0.72891 -1.56246,1.74897 -2.20117,2.9082 -0.0252,0.0125 -0.048,0.0188 -0.0859,0.0566 -0.56444,1.12889 -1.18595,2.24308 -1.86328,3.34375 -0.64911,1.10067 -1.42501,2.10275 -2.32813,3.00586 -0.36688,0.36689 -0.74746,0.69043 -1.14257,0.97266 -0.39511,0.254 -0.74815,0.38086 -1.0586,0.38086 -0.508,0 -0.76172,-0.38058 -0.76172,-1.14258 v -0.29492 c 0,-0.14112 0.0147,-0.26993 0.043,-0.38282 0.22578,-1.46755 0.67619,-3.03215 1.35352,-4.69726 0.70555,-1.66511 1.4962,-3.27395 2.37109,-4.82617 h 3.13281 c 0.11289,0 0.21221,-0.057 0.29688,-0.16993 0.0847,-0.11289 0.12695,-0.2122 0.12695,-0.29687 0,-0.11289 -0.057,-0.16797 -0.16992,-0.16797 h -3.00586 c 0.81845,-1.46755 1.62384,-2.80988 2.41406,-4.02344 0.79023,-1.24177 1.40978,-2.2419 1.86133,-3.0039 z m 14.73242,5.50195 c 0.19756,0 0.3962,0.057 0.59375,0.16992 -0.87488,0.14111 -1.49639,0.56398 -1.86328,1.26953 -0.36689,0.67734 -0.57832,1.41095 -0.63476,2.20117 -0.0282,0.508 -0.043,1.24162 -0.043,2.20118 0,0.95955 -0.0423,1.99113 -0.12695,3.09179 -0.0565,1.07245 -0.24034,2.04504 -0.55079,2.91992 -0.254,0.70556 -0.67686,1.24249 -1.26953,1.60938 -0.59266,0.36689 -1.17188,0.55078 -1.73633,0.55078 -0.50799,0 -0.94561,-0.15635 -1.3125,-0.4668 -0.36688,-0.31044 -0.54882,-0.80313 -0.54882,-1.48046 0,-0.14112 0.0128,-0.29747 0.041,-0.4668 0.0282,-0.19756 0.0705,-0.39424 0.12696,-0.5918 0.14111,-0.47978 0.38203,-0.91739 0.7207,-1.3125 0.36689,-0.39511 0.78975,-0.59375 1.26953,-0.59375 0.0564,0 0.11348,0.0148 0.16992,0.043 0.0847,0 0.16924,0.0148 0.25391,0.043 0.0564,-0.11289 0.0142,-0.29678 -0.12695,-0.55078 -0.11289,-0.254 -0.39611,-0.38086 -0.84766,-0.38086 -0.16933,0 -0.29619,0.0128 -0.38086,0.041 l 1.27148,-2.28515 c 0.45156,-0.81845 0.85968,-1.59435 1.22657,-2.32813 0.36688,-0.73377 0.74746,-1.36807 1.14257,-1.90429 0.254,-0.33867 0.63654,-0.7212 1.14454,-1.14453 0.508,-0.42334 1.00069,-0.63477 1.48046,-0.63477 z m -64.85351,1.86328 c 0.31044,0 0.52188,0.14161 0.63476,0.42383 0.14112,0.254 0.21094,0.56475 0.21094,0.93164 0,0.39511 -0.057,0.7462 -0.16992,1.05664 -0.28222,0.73378 -0.6628,1.46739 -1.14258,2.20117 -0.47978,0.70556 -1.01475,1.29952 -1.60742,1.7793 -0.59267,0.45155 -1.19942,0.67773 -1.82031,0.67773 -0.31045,0 -0.63595,-0.0846 -0.97461,-0.2539 0.0564,-0.22578 0.11348,-0.43917 0.16992,-0.63672 0.0847,-0.22578 0.16924,-0.43721 0.25391,-0.63477 0.254,-0.70555 0.63457,-1.48146 1.14257,-2.32812 0.508,-0.87489 1.05773,-1.62325 1.65039,-2.24414 0.59267,-0.64911 1.14435,-0.97266 1.65235,-0.97266 z m 23.19726,0 c 0.31045,0 0.52188,0.14161 0.63477,0.42383 0.14111,0.254 0.21289,0.56475 0.21289,0.93164 0,0.39511 -0.057,0.7462 -0.16992,1.05664 -0.28222,0.73378 -0.6628,1.46739 -1.14258,2.20117 -0.47978,0.70556 -1.01671,1.29952 -1.60937,1.7793 -0.59267,0.45155 -1.19943,0.67773 -1.82032,0.67773 -0.31044,0 -0.63399,-0.0846 -0.97265,-0.2539 0.0564,-0.22578 0.11152,-0.43917 0.16797,-0.63672 0.0847,-0.22578 0.16924,-0.43721 0.2539,-0.63477 0.254,-0.70555 0.63653,-1.48146 1.14453,-2.32812 0.508,-0.87489 1.05773,-1.62325 1.65039,-2.24414 0.59267,-0.64911 1.14239,-0.97266 1.65039,-0.97266 z m 31.41211,0.084 c 0.45156,0 0.76231,0.15635 0.93164,0.46679 0.19756,0.28222 0.29493,0.6628 0.29493,1.14258 0,0.62089 -0.12686,1.35451 -0.38086,2.20117 -0.254,0.81845 -0.57755,1.66418 -0.97266,2.53906 0.0847,-0.45155 0.0424,-0.78984 -0.12695,-1.01562 -0.14111,-0.254 -0.33975,-0.38086 -0.59375,-0.38086 -0.28222,0 -0.56348,0.14161 -0.84571,0.42383 -0.28222,0.254 -0.52314,0.66407 -0.7207,1.22851 -0.11289,0.28223 -0.18271,0.56348 -0.21094,0.84571 -0.0282,0.254 -0.043,0.49297 -0.043,0.71875 0,0.56444 0.0718,0.98926 0.21289,1.27148 l 0.2539,0.42188 c -0.45155,0.62088 -0.88917,1.13028 -1.3125,1.52539 -0.42333,0.36689 -0.79112,0.55078 -1.10156,0.55078 -0.42333,0 -0.73409,-0.14161 -0.93164,-0.42383 -0.16933,-0.31044 -0.25391,-0.70577 -0.25391,-1.18555 0,-0.64911 0.12882,-1.41222 0.38282,-2.28711 0.28222,-0.90311 0.6333,-1.81866 1.05664,-2.75 0.45155,-0.93133 0.93145,-1.79376 1.43945,-2.58398 0.53622,-0.81844 1.05841,-1.46749 1.56641,-1.94727 0.50799,-0.508 0.96035,-0.76171 1.35546,-0.76171 z" />
    </g>
  </g>
</svg>
